<?xml version="1.0" standalone="no"?>
<!DOCTYPE svg PUBLIC "-//W3C//DTD SVG 1.1//EN" "http://www.w3.org/Graphics/SVG/1.1/DTD/svg11.dtd" >
<svg xmlns="http://www.w3.org/2000/svg" xmlns:xlink="http://www.w3.org/1999/xlink" version="1.1">
<metadata></metadata>
<defs>
<font id="nexaheavy_italic" horiz-adv-x="1312" >
<font-face units-per-em="2048" ascent="1434" descent="-614" />
<missing-glyph horiz-adv-x="493" />
<glyph horiz-adv-x="0" />
<glyph horiz-adv-x="682" />
<glyph unicode=" "  horiz-adv-x="493" />
<glyph unicode="&#x09;" horiz-adv-x="493" />
<glyph unicode="&#xa0;" horiz-adv-x="493" />
<glyph unicode="!" horiz-adv-x="616" d="M297 1436h317l-184 -1000h-303q109 649 170 1000zM49 139q0 98 66 154.5t149 56.5q68 0 110 -38.5t42 -108.5q0 -98 -66 -154.5t-151 -56.5q-64 0 -107 38.5t-43 108.5z" />
<glyph unicode="&#x22;" horiz-adv-x="937" d="M274 1432h269l-99 -555h-268zM680 1432h272l-98 -555h-272z" />
<glyph unicode="#" horiz-adv-x="1447" d="M670 1434h274l-131 -308h223l133 308h273l-131 -308h147l-41 -237h-207l-161 -373h161l-43 -240h-217l-116 -276h-275l117 276h-225l-117 -276h-273l117 276h-155l43 240h217l159 375h-170l41 235h226zM961 907h-259l-174 -405h258z" />
<glyph unicode="$" horiz-adv-x="1468" d="M1432 1190l-273 -117q-22 66 -105.5 114t-199.5 48q-76 0 -142 -17.5t-116 -58.5t-61 -100q-7 -36 6 -63.5t35.5 -43.5t64.5 -28t77 -17.5t89 -11.5q102 -11 179 -27t160.5 -51t133 -84.5t73.5 -131t5 -187.5q-35 -201 -182 -318.5t-394 -142.5l-32 -195h-281l33 193 q-181 18 -314.5 118t-169.5 253l289 129q29 -97 134.5 -160.5t234.5 -63.5q77 0 132 7t106 26t81.5 57.5t40.5 96.5q8 47 -12 82.5t-64.5 58t-100 36t-126.5 19.5q-54 5 -97.5 10.5t-94 15.5t-87.5 22.5t-78.5 31.5t-66.5 42.5t-52 56t-34 72t-13.5 89.5t9.5 109 q18 98 72 176t132.5 128t168 79.5t188.5 38.5l29 170h270l-28 -170q70 -9 126.5 -28t107.5 -52t88.5 -86t58.5 -125z" />
<glyph unicode="%" horiz-adv-x="1677" d="M561 1442q72 0 128.5 -23t91 -62.5t52 -88.5t17.5 -103q0 -69 -27.5 -136.5t-77.5 -122t-128.5 -88.5t-170.5 -34q-143 0 -215.5 80t-72.5 197q0 69 27.5 136.5t77 122t127.5 88.5t171 34zM1292 1432h322l-1190 -1434h-326zM1272 643q140 0 213.5 -80.5t73.5 -195.5 q0 -69 -27.5 -136.5t-77.5 -122t-128.5 -88.5t-170.5 -34q-140 0 -213.5 81t-73.5 197q0 69 27.5 136t77.5 121.5t128.5 88t170.5 33.5zM1233 430q-59 0 -98 -41.5t-39 -93.5q0 -40 25.5 -68t70.5 -28q63 0 99 40t36 95q0 40 -24 68t-70 28zM524 1233q-63 0 -101 -42 t-38 -95q0 -42 25 -70.5t73 -28.5q63 0 100.5 41.5t37.5 96.5q0 42 -24.5 70t-72.5 28z" />
<glyph unicode="&#x26;" horiz-adv-x="1468" d="M956 614h-286q-132 0 -209.5 -57.5t-77.5 -134.5q0 -39 16 -69t40.5 -47.5t58.5 -28t64 -14t63 -3.5q25 0 58 6t73.5 21.5t76 37.5t62.5 59t35 81zM1239 614l-33 -184q-2 -4 -2 -20q0 -43 24 -76t70 -33q3 0 31 4l-57 -315q-38 -6 -70 -6q-98 0 -158.5 46t-70.5 146 q-77 -104 -193 -151.5t-248 -47.5q-95 0 -175.5 18t-150 57.5t-109.5 112.5t-40 173q0 276 299 399q-70 23 -108.5 98t-38.5 150q0 103 42 187t108 136.5t152.5 87.5t170 49.5t166.5 14.5q79 0 147 -11.5t128.5 -38.5t103 -68t67.5 -103t25 -141q0 -35 -2 -58h-293 q0 78 -67 119t-162 41q-108 0 -187.5 -57t-79.5 -150q0 -135 201 -135h668l-43 -244h-115z" />
<glyph unicode="'" horiz-adv-x="528" d="M274 1427h267l-99 -555h-266z" />
<glyph unicode="(" horiz-adv-x="743" d="M739 1583l113 -203q-229 -167 -357 -415t-128 -525q0 -179 51 -333.5t153 -253.5l-182 -199q-165 126 -248.5 320t-83.5 436q0 197 51 377t143.5 326.5t215 264t272.5 205.5z" />
<glyph unicode=")" horiz-adv-x="743" d="M166 1380l182 203q160 -129 250 -331.5t90 -446.5q0 -687 -651 -1159l-131 207q184 131 298.5 330t157.5 440q38 222 -9.5 422.5t-186.5 334.5z" />
<glyph unicode="*" horiz-adv-x="839" d="M758 950l-180 -119l-86 175l-146 -179l-145 123l153 150l-176 43l90 184l170 -67l23 190h211l-56 -190l205 71l23 -188l-193 -39z" />
<glyph unicode="+" horiz-adv-x="1015" d="M121 801h282l54 295h270l-53 -295h289l-45 -258h-289l-51 -295h-271l51 295h-282z" />
<glyph unicode="," horiz-adv-x="536" d="M354 156q0 -36 -15.5 -82.5t-33.5 -81t-53 -99t-53 -100.5h-158l70 213q-52 8 -76.5 38.5t-14.5 82.5q13 74 70 115t125 41q58 0 98.5 -34t40.5 -93z" />
<glyph unicode="-" horiz-adv-x="1011" d="M98 471l45 256h768l-45 -256h-768z" />
<glyph unicode="." horiz-adv-x="536" d="M23 125q0 92 60 143t140 51q59 0 100.5 -37t41.5 -102q0 -88 -62.5 -140t-138.5 -52q-60 0 -100.5 36t-40.5 101z" />
<glyph unicode="/" horiz-adv-x="1069" d="M889 1573h289l-967 -1741h-287z" />
<glyph unicode="0" horiz-adv-x="1480" d="M463 821l-43 -207q-35 -183 34 -277.5t214 -94.5t251.5 94.5t141.5 277.5l43 207q34 178 -35 272.5t-211 94.5q-95 0 -173.5 -38t-138 -122t-83.5 -207zM106 614l35 209q28 164 100 292t174 206t223 118t255 40q132 0 238.5 -42t180 -122t101.5 -206.5t2 -285.5l-35 -207 q-28 -160 -99.5 -287t-171.5 -206.5t-218.5 -121.5t-247.5 -42q-103 0 -192.5 25t-163.5 76t-121.5 129t-65 184t5.5 241z" />
<glyph unicode="1" horiz-adv-x="935" d="M-4 0l47 262h256l135 774l-241 -71l49 278l563 191l-205 -1172h225l-47 -262h-782z" />
<glyph unicode="2" horiz-adv-x="1382" d="M498 1008h-308q22 97 70.5 174t112 127t143.5 82.5t161 46.5t169 14q105 0 195.5 -23.5t160 -70t109 -120.5t39.5 -169q0 -117 -33 -207.5t-90.5 -149.5t-142 -97t-181.5 -54t-215 -16q-44 0 -78.5 -3t-79.5 -14t-77 -31t-59 -57.5t-36 -89.5l-10 -55h858l-51 -295h-1159 q12 61 31 178t30 174q16 93 53 168t90 125.5t115 86t135 55t142 28t145 8.5q45 0 87.5 7.5t87 25t75.5 53.5t41 86q17 90 -43.5 137.5t-185.5 47.5q-67 0 -128.5 -18t-110 -58t-62.5 -96z" />
<glyph unicode="3" horiz-adv-x="1390" d="M698 604h-219l47 260h199q39 0 68.5 2t69 10t67 22.5t51 42t31.5 65.5q5 26 -1 51.5t-26.5 51.5t-71.5 42t-127 16q-236 0 -286 -139h-318q24 93 74.5 168t115 123t144.5 80t160 45.5t164 13.5q74 0 143 -11.5t134.5 -38.5t114 -67.5t78 -103.5t29.5 -141 q0 -123 -66 -221t-179 -142q116 -53 154.5 -159t-5.5 -232q-30 -90 -87.5 -158t-124 -107.5t-151 -64t-159 -33t-156.5 -8.5q-86 0 -164 15.5t-147 51.5t-117 89t-70.5 132t-11.5 177h322q-7 -94 61 -137t178 -43q34 0 68.5 3.5t81 16.5t81 34t59 60t24.5 91q0 19 -5 37 t-20 38t-39 34.5t-67.5 24t-100.5 9.5z" />
<glyph unicode="4" horiz-adv-x="1406" d="M983 1432h317l-157 -897h164l-50 -277h-163l-45 -260h-314l45 260h-764l31 328zM367 535h462l91 509z" />
<glyph unicode="5" horiz-adv-x="1345" d="M1325 1432l-49 -287h-762l-39 -225h260q97 0 174 -13t145 -45.5t110.5 -84.5t62 -134t8.5 -190q-11 -102 -58.5 -184.5t-114 -134.5t-151.5 -87.5t-167.5 -50t-165.5 -14.5q-102 0 -185.5 15.5t-153 49t-110.5 87.5t-59 130.5t2 177.5h311q-8 -52 10 -89t56.5 -55.5 t80.5 -26t93 -7.5q30 0 64 4.5t77.5 19.5t77 38t57 65t23.5 96q0 38 -16.5 67.5t-41 47t-57.5 28.5t-62.5 15t-58.5 4h-549l137 783h1051z" />
<glyph unicode="6" horiz-adv-x="1427" d="M502 971l-29 -160q78 72 160.5 101.5t197.5 29.5q139 0 248 -44t175.5 -136.5t66.5 -222.5q0 -116 -40.5 -212t-108 -160t-158 -108.5t-189 -64t-202.5 -19.5q-93 0 -176 17t-155 55t-120.5 94t-68.5 139t-3 185l90 506q18 98 65.5 180t114 138.5t149.5 96t172.5 58 t182.5 18.5q98 0 178.5 -14t149 -46.5t112.5 -82t63.5 -124t6.5 -169.5h-299q0 57 -39 95t-95 53.5t-126 15.5q-116 0 -212.5 -61t-110.5 -158zM666 258q88 0 161.5 27.5t120 81.5t49.5 125q1 86 -63.5 133t-181.5 47q-145 0 -240.5 -63t-99.5 -171q-1 -85 67 -132.5 t187 -47.5z" />
<glyph unicode="7" horiz-adv-x="1181" d="M422 0h-359l768 1143h-675l51 291h1087l-16 -158z" />
<glyph unicode="8" horiz-adv-x="1454" d="M725 614q-129 0 -220 -48.5t-108 -129.5q-7 -31 1.5 -61.5t34.5 -60.5t84 -49t142 -19q86 0 151 18.5t101 49t54 61t22 61.5q12 81 -56 129.5t-206 48.5zM66 453q6 33 26.5 73t53.5 82.5t84.5 79t111.5 55.5q-86 54 -117 149.5t2 199.5q51 177 230 276.5t413 99.5 q244 0 385.5 -94.5t141.5 -273.5q0 -115 -64.5 -205t-175.5 -135q49 -20 84.5 -53t54 -71t27 -73.5t8.5 -70.5q0 -133 -59 -236.5t-160.5 -166.5t-230 -94.5t-275.5 -29.5q-100 0 -188 17.5t-163 54t-123 94t-68 138t2 184.5zM537 1018q0 -71 59.5 -117.5t171.5 -46.5 q119 0 195 50.5t94 127.5q14 67 -44 123.5t-188 56.5q-65 0 -117 -15t-83 -37t-51.5 -49.5t-28.5 -50.5t-8 -42z" />
<glyph unicode="9" horiz-adv-x="1437" d="M979 467l27 160q-78 -72 -161 -101.5t-198 -29.5q-140 0 -248.5 44t-174.5 136.5t-66 222.5q0 116 40.5 212t108 160t158 108t189 63.5t202.5 19.5q93 0 176 -17t154.5 -55t120 -93.5t68.5 -138.5t3 -185l-88 -506q-19 -105 -69 -189.5t-118.5 -140t-155 -93 t-175.5 -53.5t-184 -16q-124 0 -221.5 23.5t-171.5 73t-107.5 136t-17.5 204.5h299q2 -43 25.5 -74.5t62.5 -49.5t84 -26t98 -8q60 0 113.5 11.5t101 36t80.5 67t45 98.5zM807 1180q-136 0 -231 -64t-95 -170q0 -86 66 -133t184 -47q145 0 240.5 63t95.5 170q0 85 -70.5 133 t-189.5 48z" />
<glyph unicode=":" horiz-adv-x="577" d="M41 123q0 87 60 137.5t139 50.5q57 0 97 -35t40 -98q0 -86 -61 -138t-130 -52q-61 0 -103 35t-42 100zM145 711q0 86 61 137t136 51q59 0 99 -35t40 -98q0 -88 -60 -139.5t-134 -51.5q-59 0 -100.5 36t-41.5 100z" />
<glyph unicode=";" horiz-adv-x="581" d="M373 158q0 -19 -4.5 -41t-9.5 -40t-17 -46.5t-19 -44.5t-25.5 -49.5t-25.5 -46t-28.5 -50.5t-26.5 -47h-158l74 203q-49 8 -76.5 43.5t-17.5 87.5q13 75 71.5 117.5t127.5 42.5q62 0 98.5 -32.5t36.5 -96.5zM147 711q0 86 61 137t136 51q59 0 99 -35t40 -98 q0 -88 -60 -139.5t-134 -51.5q-59 0 -100.5 36t-41.5 100z" />
<glyph unicode="&#x3c;" horiz-adv-x="860" d="M446 641l248 -297l-225 -203l-395 494l2 14l569 494l156 -203z" />
<glyph unicode="=" horiz-adv-x="1169" d="M72 262l47 262h905l-47 -262h-905zM156 743l47 265h905l-47 -265h-905z" />
<glyph unicode="&#x3e;" horiz-adv-x="860" d="M72 328l356 313l-248 315l226 187l397 -494l-4 -14l-570 -494z" />
<glyph unicode="?" horiz-adv-x="1200" d="M473 -16q-107 0 -143 80q-32 70 6 152q39 86 127 117q38 13 80 13q112 -3 148 -85q30 -70 -10 -151q-41 -84 -130 -114q-37 -12 -78 -12zM461 1014h-322q20 122 74 211t136.5 141t181.5 76t221 24q207 0 336.5 -98t125.5 -260q-2 -70 -20 -125t-43.5 -90t-66.5 -68 t-78.5 -54t-93 -54.5t-95.5 -63.5q-60 -44 -78.5 -84.5t-23.5 -113.5h-318q12 245 234 379q26 15 65.5 34t62 30.5t50 29.5t42 35.5t24.5 44t10 59.5q0 61 -48.5 93t-134.5 32q-197 0 -241 -178z" />
<glyph unicode="@" horiz-adv-x="1912" d="M1055 1149q-119 0 -234.5 -35.5t-214.5 -103.5t-174.5 -160t-118.5 -213.5t-43 -255.5q0 -131 44 -230.5t121.5 -159t174.5 -89t211 -29.5q160 0 316 80l53 -166q-191 -104 -410 -104q-113 0 -217 25.5t-195.5 80t-159.5 132.5t-107.5 190.5t-39.5 246.5q0 180 59.5 338 t161 273t233 198t278 124.5t294.5 41.5q163 0 298.5 -42.5t236.5 -124t157 -210.5t56 -294q0 -197 -65.5 -353.5t-180.5 -242.5t-258 -86q-31 0 -60.5 7.5t-57.5 24.5t-45 50t-17 77q-57 -64 -151.5 -104.5t-157.5 -40.5q-193 0 -314.5 120.5t-121.5 309.5q0 111 46 217 t123.5 186.5t187 129.5t228.5 49q90 -2 164.5 -35t110.5 -101l28 88l187 -30l-123 -692q-5 -31 10.5 -47.5t32.5 -16.5q105 5 171 131.5t66 325.5q0 260 -138.5 390t-444.5 130zM973 774q-75 0 -136.5 -28.5t-100.5 -74.5t-60 -102.5t-21 -115.5q0 -96 56 -160t168 -64 q147 0 233 97.5t86 232.5q0 96 -56.5 155.5t-168.5 59.5z" />
<glyph unicode="A" horiz-adv-x="1619" d="M1192 0l-62 246h-735l-147 -246h-357l895 1434h349l391 -1434h-334zM1059 528l-141 588l-353 -588h494z" />
<glyph unicode="B" horiz-adv-x="1486" d="M477 610l-59 -331h393q120 0 182 50.5t62 139.5q0 65 -48.5 103t-140.5 38h-389zM573 1157l-51 -280h389q92 0 146.5 52t54.5 115q0 51 -35.5 82t-109.5 31h-394zM307 1434h707q193 0 309.5 -84.5t116.5 -245.5q0 -112 -60.5 -203.5t-189.5 -148.5q121 -47 163 -167.5 t3 -248.5q-56 -175 -195.5 -255.5t-374.5 -80.5h-731z" />
<glyph unicode="C" horiz-adv-x="1427" d="M1161 395l160 -221q-247 -211 -588 -211q-164 0 -291 48.5t-203.5 133t-115.5 192.5t-39 234q0 130 36 257t112 242.5t182.5 203.5t257.5 140t327 52q303 0 488 -221l-234 -194q-51 60 -132.5 88t-174.5 28q-117 0 -215 -42.5t-162 -111.5t-103 -148t-52 -160 q-5 -45 -6 -90.5t10 -89.5t28.5 -83.5t49.5 -73t72 -58t96 -38.5t122 -14q91 0 198 37t177 100z" />
<glyph unicode="D" horiz-adv-x="1550" d="M307 1434h588q154 0 272 -46t188.5 -127t106 -183.5t35.5 -223.5q0 -105 -21.5 -206t-64 -197.5t-113 -177.5t-162.5 -142.5t-218.5 -96t-274.5 -34.5h-588zM573 1145l-151 -850h272q110 0 197.5 35t140.5 89.5t87.5 126t47.5 137.5t13 132q0 67 -18 124t-55.5 104.5 t-104 74.5t-156.5 27h-273z" />
<glyph unicode="E" horiz-adv-x="1343" d="M1198 295l-51 -295h-1092l252 1434h1063l-51 -293h-750l-49 -277h707l-49 -280h-707l-51 -289h778z" />
<glyph unicode="F" horiz-adv-x="1288" d="M375 0h-320l252 1432h1045l-52 -293h-725l-59 -340h680l-51 -285h-680z" />
<glyph unicode="G" horiz-adv-x="1523" d="M1487 1262l-223 -205q-54 61 -139 94t-175 33q-242 0 -394.5 -152t-156.5 -403q0 -55 9 -103.5t34.5 -100t67 -88t112.5 -60t164 -23.5q85 0 160 21t162 79l41 230h-342l47 266h619l-111 -625q-230 -266 -631 -266q-137 0 -247.5 34.5t-183 92.5t-121.5 138.5t-70 169 t-21 186.5q0 114 24.5 223t72 210t124.5 185t175.5 146.5t231 97.5t285.5 35q344 0 486 -215z" />
<glyph unicode="H" horiz-adv-x="1599" d="M1331 -2h-315l100 567h-641l-100 -567h-320l252 1434h320l-101 -574h641l101 574h315z" />
<glyph unicode="I" horiz-adv-x="641" d="M373 0h-318l252 1434h318z" />
<glyph unicode="J" horiz-adv-x="1466" d="M35 596h301q-24 -172 45.5 -248t230.5 -76q159 0 262 89.5t132 254.5l94 535h-395l49 283h716l-145 -820q-25 -146 -80 -260t-144.5 -201t-222.5 -133.5t-303 -46.5q-311 0 -453 152.5t-87 470.5z" />
<glyph unicode="K" horiz-adv-x="1378" d="M1491 1434v-9l-711 -700l514 -707l-4 -18h-385l-422 612l-108 -612h-320l252 1434h320l-105 -592l582 592h387z" />
<glyph unicode="L" horiz-adv-x="1224" d="M307 1434h320l-201 -1141h717l-51 -293h-1037z" />
<glyph unicode="M" horiz-adv-x="1890" d="M1303 -2l176 997l-541 -557h-57l-328 574l-178 -1014h-320l252 1434h367l321 -551l516 551h363l-252 -1434h-319z" />
<glyph unicode="N" horiz-adv-x="1622" d="M582 1434l559 -932l59 450l84 482h322l-252 -1434h-275l-551 918l-71 -472l-78 -446h-324l252 1434h275z" />
<glyph unicode="O" horiz-adv-x="1716" d="M1667 850q0 -197 -71 -364t-194 -280.5t-292.5 -177t-364.5 -63.5q-303 0 -480 166t-177 453q0 197 71 364t194 280t292.5 176.5t364.5 63.5q303 0 480 -165.5t177 -452.5zM1337 717q24 130 -14.5 236t-134 167.5t-230.5 61.5q-150 0 -277 -73.5t-200 -198t-73 -269.5 q0 -171 105 -279t282 -108q208 0 356.5 129.5t185.5 333.5z" />
<glyph unicode="P" horiz-adv-x="1437" d="M573 1130l-75 -432h356q123 0 197.5 75t74.5 175q0 78 -50.5 130t-145.5 52h-357zM803 406h-357l-71 -406h-320l252 1434h676q117 0 208.5 -33.5t147.5 -92.5t84.5 -136t28.5 -168q0 -96 -27 -184t-81.5 -163.5t-131 -131.5t-182 -87.5t-227.5 -31.5z" />
<glyph unicode="Q" horiz-adv-x="1712" d="M1663 856q0 -326 -219 -584l137 -168l-264 -221l-141 178q-192 -94 -431 -94q-304 0 -480.5 164t-176.5 453q0 200 70.5 367.5t194 280.5t292.5 175.5t365 62.5q302 0 477.5 -163.5t175.5 -450.5zM1333 719q37 204 -65.5 332.5t-309.5 128.5q-150 0 -276.5 -71.5 t-200 -196t-73.5 -273.5q0 -172 105 -276.5t284 -104.5q205 0 358 133.5t178 327.5z" />
<glyph unicode="R" horiz-adv-x="1490" d="M1331 25l-4 -25h-348l-283 471h-237l-84 -471h-320l252 1434h680q112 0 200 -33.5t143 -91t83.5 -130.5t28.5 -157q0 -196 -101 -322.5t-319 -199.5zM940 1159h-360l-74 -418h364q59 0 108.5 22.5t79.5 57t46 74.5t16 78q0 76 -45 131t-135 55z" />
<glyph unicode="S" horiz-adv-x="1323" d="M1288 1286l-215 -192q-47 57 -130.5 85.5t-174.5 28.5q-119 0 -203 -49.5t-84 -132.5q0 -32 14 -55.5t36 -38.5t61 -25.5t76.5 -16.5t93.5 -11q79 -7 146 -24t129.5 -48t106 -74.5t69.5 -108t26 -143.5q0 -112 -37.5 -202t-102 -150t-153.5 -100t-188.5 -58t-210.5 -18 q-180 0 -328 62.5t-223 183.5l205 239q61 -95 171.5 -143.5t227.5 -48.5q142 0 231 53t89 145q0 71 -61 105.5t-197 52.5q-94 11 -168 28.5t-144 52.5t-112.5 83.5t-61.5 123.5t-4 171q18 103 79.5 185.5t150.5 133.5t194.5 78t218.5 27q164 0 273 -43.5t200 -155.5z" />
<glyph unicode="T" horiz-adv-x="1257" d="M362 0l203 1149h-436l51 285h1190l-51 -285h-436l-203 -1149h-318z" />
<glyph unicode="U" horiz-adv-x="1587" d="M1274 1432h317l-141 -801q-57 -323 -250 -494.5t-495 -171.5q-128 0 -231.5 30t-181.5 90.5t-120.5 158.5t-42.5 227q0 80 14 160l142 801h317l-141 -801q-12 -61 -12 -115q0 -130 68 -198t202 -68q175 0 276.5 101t137.5 280z" />
<glyph unicode="V" horiz-adv-x="1519" d="M1661 1434l-838 -1440h-342l-344 1440h359l217 -1059l590 1059h358z" />
<glyph unicode="W" horiz-adv-x="2199" d="M2331 1434l-772 -1432h-263l-166 801l-438 -801h-262l-283 1432h359l92 -490l47 -463l490 953h208l168 -953l205 461l256 492h359z" />
<glyph unicode="X" horiz-adv-x="1419" d="M768 940l416 494h368l-2 -15l-628 -714l376 -695l-2 -10h-354l-250 475l-401 -475h-389l2 10l628 717l-364 692l2 15h350z" />
<glyph unicode="Y" horiz-adv-x="1443" d="M506 1434l244 -570l462 570h375l-2 -17l-723 -848l-100 -569h-320l101 569l-400 848l2 17h361z" />
<glyph unicode="Z" horiz-adv-x="1286" d="M199 1159l47 275h1095l-24 -140l-862 -995h704l-53 -299h-1147l29 166l876 993h-665z" />
<glyph unicode="[" horiz-adv-x="745" d="M502 -365h-525l320 1807h524l-45 -252h-233l-230 -1301h234z" />
<glyph unicode="\" horiz-adv-x="1038" d="M215 1573h293l350 -1741h-291z" />
<glyph unicode="]" horiz-adv-x="745" d="M426 -365h-524l45 254h233l230 1301h-234l45 252h524z" />
<glyph unicode="^" horiz-adv-x="1333" d="M96 672l4 12l625 756h170l377 -752v-16h-314l-210 430l-351 -430h-301z" />
<glyph unicode="_" horiz-adv-x="1017" d="M-115 -248l45 256h969l-45 -256h-969z" />
<glyph unicode="`" horiz-adv-x="540" d="M244 1417l2 13h344l100 -287l-2 -15h-258z" />
<glyph unicode="a" d="M952 895l31 117h277l-179 -1012h-266l6 127q-58 -73 -156.5 -111.5t-181.5 -38.5q-202 0 -321 115t-119 318q0 141 51.5 261t138.5 199t202.5 122.5t242.5 41.5q95 0 171.5 -38.5t102.5 -100.5zM662 774q-129 0 -223.5 -86.5t-94.5 -228.5q0 -102 61.5 -160.5 t161.5 -58.5q136 0 228 92t92 211q0 99 -57 165t-168 66z" />
<glyph unicode="b" d="M727 766q-58 0 -115 -20t-104 -57t-76 -97.5t-29 -134.5q0 -108 66 -159.5t166 -51.5q132 0 215.5 89.5t83.5 217.5q0 96 -55 154.5t-152 58.5zM270 1432h297l-94 -543q140 143 342 143q196 0 309 -114t113 -314q0 -135 -47 -252t-128 -198t-192.5 -127.5t-236.5 -46.5 q-107 0 -182 32t-127 117l-41 -129h-265z" />
<glyph unicode="c" horiz-adv-x="1040" d="M782 326l152 -193q-182 -156 -422 -156q-100 0 -184.5 26.5t-149 78t-101 135t-36.5 191.5q0 116 36 217.5t98.5 175.5t145.5 127t178.5 79.5t196.5 26.5q116 0 199 -31.5t143 -107.5l-196 -186q-69 59 -180 59q-129 0 -223.5 -84.5t-94.5 -220.5q0 -100 61.5 -156.5 t157.5 -56.5q53 0 115.5 20.5t103.5 55.5z" />
<glyph unicode="d" horiz-adv-x="1314" d="M645 766q-129 0 -214 -88t-85 -219q0 -96 53 -154.5t154 -58.5q61 0 116 17t102 51t75 94t28 139q0 102 -66 160.5t-163 58.5zM1038 1432h297l-252 -1432h-264l4 129q-81 -84 -168.5 -115.5t-193.5 -31.5q-192 0 -305 117.5t-113 310.5q0 183 80.5 326t218.5 219.5 t309 76.5q199 0 291 -143z" />
<glyph unicode="e" horiz-adv-x="1179" d="M1077 410h-743q-2 -78 61.5 -128.5t182.5 -50.5q172 0 276 80l133 -184q-92 -76 -214.5 -113t-246.5 -37q-234 0 -358.5 119t-124.5 322q0 178 81 319.5t227 221t331 79.5q268 0 381 -163t14 -465zM373 625h479q7 78 -54 119.5t-159 41.5q-90 0 -160.5 -43t-105.5 -118z " />
<glyph unicode="f" horiz-adv-x="833" d="M1030 1391l-112 -224q-62 41 -144 41q-145 0 -172 -155l-10 -60h280l-43 -248h-280l-131 -745h-295l131 745h-178l43 248h178l10 60q16 97 53.5 171t84 118t108 71.5t118 37t120.5 9.5q133 0 239 -69z" />
<glyph unicode="g" horiz-adv-x="1318" d="M662 776q-130 0 -224 -86.5t-94 -232.5q0 -103 60.5 -159t160.5 -56q143 0 234 111q76 92 78 207q1 116 -77 175q-54 41 -138 41zM-23 -123h293q0 -48 32 -78t78 -41.5t107 -11.5q49 0 95.5 12.5t90.5 38t76 73t44 110.5l24 141q-65 -81 -157 -115.5t-179 -34.5 q-199 0 -318.5 118t-119.5 321q0 144 51.5 264.5t138.5 199.5t202 121.5t243 40.5q95 0 168 -39t100 -102l31 115h285l-175 -1037q-44 -250 -214 -372.5t-427 -122.5q-106 0 -195.5 25t-155.5 73.5t-98 125.5t-20 175z" />
<glyph unicode="h" horiz-adv-x="1245" d="M270 1434h297l-96 -547q135 141 334 141q406 0 317 -485l-96 -543h-295l96 541q18 104 -24 161.5t-131 57.5q-96 0 -173 -66t-96 -182l-90 -512h-295z" />
<glyph unicode="i" horiz-adv-x="544" d="M197 1014h295l-179 -1014h-295zM221 1251q0 91 60.5 143t138.5 52q60 0 101.5 -36t41.5 -101q0 -87 -60.5 -141t-135.5 -54q-63 -2 -104.5 34.5t-41.5 102.5z" />
<glyph unicode="j" horiz-adv-x="544" d="M-283 -414l76 242q53 -23 96 -22.5t74.5 35t44.5 102.5l189 1071h295l-189 -1063q-17 -108 -61 -189.5t-104 -128t-131.5 -68t-145.5 -15.5t-144 36zM223 1251q0 90 60 142.5t139 52.5q59 0 100 -36.5t41 -100.5q0 -90 -62 -142.5t-139 -52.5q-59 0 -99 36t-40 101z" />
<glyph unicode="k" horiz-adv-x="1118" d="M270 1432h295l-143 -818l369 396h348l-4 -19l-455 -465l342 -503l-4 -23h-346l-281 444l-78 -444h-295z" />
<glyph unicode="l" horiz-adv-x="550" d="M274 1432h293l-252 -1432h-292z" />
<glyph unicode="m" horiz-adv-x="1816" d="M961 0h-291l96 543q38 221 -135 221q-85 0 -143.5 -65t-77.5 -158l-97 -541h-295l179 1012h258v-115q106 137 290 137q93 0 165 -44t98 -144q86 104 170.5 147t197.5 43q56 0 102.5 -9.5t90 -32t72.5 -59t49 -90t20 -126t-14 -166.5l-99 -553h-297l97 547 q19 104 -6 157.5t-111 53.5q-84 0 -144.5 -62t-78.5 -153z" />
<glyph unicode="n" horiz-adv-x="1261" d="M1044 0h-296l94 535q40 235 -168 235q-100 0 -177.5 -73t-95.5 -175l-92 -522h-291l179 1012h266l-12 -129q151 156 354 153q425 0 334 -499z" />
<glyph unicode="o" horiz-adv-x="1243" d="M510 -23q-221 0 -345 121.5t-124 317.5q0 171 84 312.5t234.5 223.5t336.5 82q219 0 345 -123t126 -321q0 -171 -82 -310.5t-233 -221t-342 -81.5zM557 240q75 0 135.5 27.5t97 73t55.5 99t19 109.5q0 58 -19.5 106t-69.5 81.5t-124 33.5q-73 0 -133 -28.5t-97 -74.5 t-57 -100t-20 -108q0 -92 53 -155.5t160 -63.5z" />
<glyph unicode="p" horiz-adv-x="1314" d="M635 244q129 0 214 88t85 219q0 96 -53 154.5t-154 58.5q-61 0 -116 -17t-102 -51t-75 -94t-28 -139q0 -102 66 -160.5t163 -58.5zM238 -446h-297l256 1456h264l-4 -129q82 85 168 116t194 31q192 0 305 -117.5t113 -310.5q0 -138 -47 -255t-128.5 -197.5t-193.5 -125.5 t-239 -45q-87 0 -165 34.5t-126 109.5z" />
<glyph unicode="q" horiz-adv-x="1314" d="M553 244q58 0 115 20t104 57t76 97.5t29 134.5q0 108 -66.5 159.5t-165.5 51.5q-132 0 -215.5 -89.5t-83.5 -217.5q0 -96 55 -154.5t152 -58.5zM1006 -446h-297l98 567q-73 -74 -163.5 -109t-178.5 -35q-196 0 -309 114.5t-113 314.5q0 134 47 250.5t127.5 197.5 t192 127.5t237.5 46.5q106 0 181.5 -31.5t127.5 -115.5l41 129h265z" />
<glyph unicode="r" horiz-adv-x="933" d="M197 1010h274l2 -111q65 71 136 103t159 32q145 0 231 -92l-163 -233q-63 51 -154 51q-102 0 -179.5 -61.5t-96.5 -172.5l-93 -526h-295z" />
<glyph unicode="s" horiz-adv-x="1015" d="M963 909l-179 -184q-89 74 -227 74q-76 0 -119 -26.5t-43 -70.5q0 -72 135 -75q67 -2 121 -10t111.5 -30t93 -57t52.5 -96t3 -141q-11 -64 -45 -121.5t-93 -105.5t-152 -76.5t-209 -28.5q-127 0 -235 37t-210 135l164 209q73 -71 154.5 -98t175.5 -29q70 -2 119 25t49 73 q0 70 -158 78q-69 2 -131 18t-118 47t-89 86t-33 128q0 94 43.5 167t116 116t159 65t179.5 22q237 0 365 -131z" />
<glyph unicode="t" horiz-adv-x="843" d="M334 1255l299 33l-49 -282h256l-43 -246h-258l-68 -381q-4 -28 -4 -37q0 -98 96 -98q69 0 127 24l25 -245q-116 -46 -252 -46q-297 0 -297 281q0 54 12 121l68 381h-180l43 246h180z" />
<glyph unicode="u" horiz-adv-x="1263" d="M184 1012h297l-94 -535q-40 -235 168 -235q100 0 177 72.5t95 174.5l93 523h290l-178 -1012h-266l12 133q-80 -87 -166.5 -121t-187.5 -32q-60 0 -109 9.5t-94.5 31.5t-75.5 59t-51 92t-20 130t16 173z" />
<glyph unicode="v" horiz-adv-x="1210" d="M483 641l60 -334l178 334l211 371h338l-615 -1018h-323l-254 1018h325z" />
<glyph unicode="w" horiz-adv-x="1732" d="M819 1012h232l79 -645l107 229l215 416h330l-555 -1018h-293l-90 506l-269 -506h-294l-193 1018h330l67 -416l25 -229z" />
<glyph unicode="x" horiz-adv-x="1110" d="M580 719l215 291h352l-2 -11l-414 -495l258 -498l-2 -6h-344l-147 299l-232 -299h-354l2 6l436 512l-244 481l2 11h340z" />
<glyph unicode="y" horiz-adv-x="1257" d="M180 1012h295l-90 -516q-19 -109 16 -177.5t134 -68.5q102 0 183.5 75.5t102.5 180.5l90 506h293l-184 -1041q-21 -127 -78 -225t-136.5 -156.5t-172 -88t-193.5 -29.5q-209 0 -328 100t-112 305h276q0 -43 17 -71.5t49 -41.5t63.5 -17.5t75.5 -4.5q85 0 161.5 60.5 t96.5 166.5l27 152q-46 -48 -87.5 -76.5t-88.5 -41.5t-84 -16t-100 -3q-180 0 -270.5 136.5t-47.5 373.5z" />
<glyph unicode="z" horiz-adv-x="976" d="M174 1012h784l-24 -144l-531 -596h445l-47 -272h-854l22 125l555 631h-395z" />
<glyph unicode="{" horiz-adv-x="761" d="M559 -92l-41 -232q-237 -43 -347 49t-77 285l53 305q7 25 5.5 52t-9.5 49.5t-35.5 36.5t-72.5 14l39 217q45 0 77 13.5t49.5 38t26 47t13.5 53.5l51 290q38 207 177 302.5t368 52.5l-39 -224q-88 19 -134 -15t-63 -132l-47 -274q-1 -8 -6 -36t-6.5 -35.5t-7 -30.5 t-9.5 -31t-12.5 -26.5t-17 -26.5t-22 -22t-29 -21.5t-36 -17t-45.5 -16.5q41 -12 66.5 -29.5t37 -38t13 -47.5t-2 -55t-10.5 -64q-3 -16 -5 -24l-47 -266q-17 -98 9 -123.5t136 -17.5z" />
<glyph unicode="|" horiz-adv-x="581" d="M602 1569l-303 -1721h-283l303 1721h283z" />
<glyph unicode="}" horiz-adv-x="763" d="M-84 -328l41 230q105 -7 141.5 19.5t53.5 123.5l47 266q2 11 6.5 36t6 35t6.5 31t9.5 30.5t12 26t16.5 25.5l21.5 21.5t28 20.5t36 16.5t45.5 15.5q-34 11 -57 24t-35 31.5t-18 34t-5 42t3.5 45t9.5 53.5q4 21 6 32l47 275q17 95 -16 123t-129 16l40 232q244 43 352 -53 t70 -302l-51 -291q-7 -25 -5.5 -52t9.5 -49t36 -36t73 -14l-39 -217q-45 0 -77 -13.5t-49.5 -38t-26 -47t-13.5 -53.5l-53 -305q-33 -193 -178 -285.5t-365 -48.5z" />
<glyph unicode="~" horiz-adv-x="1282" d="M979 793l213 -64q-58 -142 -154.5 -218t-210.5 -81q-45 -2 -88 13.5t-77 38t-67.5 45t-73 38t-79.5 13.5q-83 -4 -147 -113l-193 70q52 124 152 204t227 84q53 2 103 -16.5t84 -42.5t79 -49.5t84 -34.5q77 -18 148 113z" />
<glyph unicode="&#xa1;" horiz-adv-x="579" d="M276 -371h-317l184 1000h303q-32 -182 -88 -515t-82 -485zM524 926q0 -98 -66 -154.5t-151 -56.5q-64 0 -107.5 39t-43.5 110q0 100 68 154.5t155 54.5q63 0 104 -39t41 -108z" />
<glyph unicode="&#xa2;" horiz-adv-x="1128" d="M819 305l146 -209q-65 -58 -137 -90.5t-166 -52.5l-29 -156h-271l29 160q-152 44 -240 154t-88 276q0 226 139 386.5t373 223.5l27 158h270l-26 -156q143 -35 233 -141l-200 -182q-34 43 -83 58.5t-116 15.5q-76 0 -148.5 -40t-121 -114t-48.5 -160q0 -101 65 -164 t159 -63q58 0 121.5 24.5t111.5 71.5z" />
<glyph unicode="&#xa3;" horiz-adv-x="1351" d="M588 889q0 -36 4 -90h405l-45 -256h-348q-6 -41 -24.5 -91.5t-58.5 -101t-89 -61.5h772l-51 -289h-1149l51 291q56 2 97.5 22t67.5 57.5t41.5 76.5t29.5 96h-191l45 256h142q-6 31 -6 102q0 117 43 219t121 177t193 118t253 43q232 0 342.5 -116.5t69.5 -333.5h-277 q16 92 -37.5 133t-146.5 41q-102 0 -178 -75.5t-76 -217.5z" />
<glyph unicode="&#xa4;" horiz-adv-x="1273" d="M604 436q111 0 175.5 68t64.5 178q0 77 -42.5 120.5t-125.5 43.5q-100 0 -170 -68.5t-70 -173.5q0 -78 45 -123t123 -45zM387 242l-137 -121l-184 221l137 115q-20 103 -1.5 184.5t77.5 177.5l-109 121l264 223l96 -119q95 27 191 27q87 0 172 -31l145 123l181 -223 l-140 -117q43 -185 -59 -366l94 -115l-256 -217l-100 117q-85 -27 -193 -27q-92 0 -178 27z" />
<glyph unicode="&#xa5;" horiz-adv-x="1564" d="M231 209l39 219h308l20 119h-307l39 219h192l-321 651l2 17h360l129 -291l117 -297l227 295l242 293h367l-3 -17l-571 -651h189l-39 -219h-310l-20 -119h309l-39 -219h-309l-37 -209h-313l37 209h-308z" />
<glyph unicode="&#xa6;" horiz-adv-x="600" d="M465 698h-299l135 758h299zM143 571h299l-133 -759h-299z" />
<glyph unicode="&#xa7;" horiz-adv-x="1261" d="M25 166l186 184q74 -86 154 -117.5t188 -31.5q73 0 130.5 10t96.5 35t39 63q0 75 -225 72q-76 -2 -148 7.5t-137 34t-110 60.5t-64 92t-2 125q14 60 62.5 116t128.5 83q-57 23 -82 73t-25 109q0 71 28.5 129.5t77.5 97t109 67t129.5 44t131.5 22.5t122 7 q81 0 157.5 -14.5t154 -54.5t120.5 -101l-203 -145q-54 46 -117.5 65t-158.5 21q-113 0 -189.5 -25t-76.5 -80q0 -82 217 -82q41 0 78.5 -2t80 -7t78 -13.5t72 -21.5t62.5 -30.5t49.5 -41.5t33 -54t12.5 -67.5t-11 -83.5q-18 -59 -68.5 -114t-120.5 -83q138 -68 115 -213 q-12 -68 -48 -123.5t-88 -91.5t-111 -61.5t-125 -39t-120 -19t-106 -5.5q-157 0 -282 51.5t-195 153.5zM895 721q0 47 -63.5 72.5t-151.5 25.5q-68 0 -126 -11t-99 -37.5t-41 -65.5q0 -45 60 -72t149 -27q38 0 79 4.5t87.5 16t76 36t29.5 58.5z" />
<glyph unicode="&#xa8;" horiz-adv-x="1077" d="M352 1298q0 92 60 141.5t139 49.5q57 0 95 -36t38 -99q0 -88 -60.5 -137.5t-138.5 -49.5q-58 0 -95.5 34t-37.5 97zM885 1303q0 87 61.5 136.5t138.5 49.5q57 0 94.5 -35.5t37.5 -99.5q0 -74 -57 -130.5t-134 -56.5q-62 0 -101.5 36t-39.5 100z" />
<glyph unicode="&#xa9;" horiz-adv-x="1703" d="M1014 1477q153 0 273.5 -46t198.5 -129t118.5 -194.5t40.5 -245.5q0 -182 -63.5 -343t-177.5 -280t-283.5 -188t-370.5 -69q-152 0 -275 46.5t-204.5 129t-125 196.5t-43.5 250q0 176 68.5 336t188 278.5t290.5 188.5t365 70zM489 657q0 135 68.5 242.5t178.5 164 t239 56.5q177 0 285 -129l-160 -135q-25 27 -66.5 44.5t-83.5 17.5q-101 0 -171 -58t-70 -168q0 -74 50 -113.5t124 -39.5q97 0 176 67l115 -139q-159 -133 -345 -133q-146 0 -243 86.5t-97 236.5zM330 631q0 -204 122.5 -327.5t333.5 -123.5q285 0 459 182.5t174 473.5 q0 205 -114 322.5t-326 117.5q-183 0 -331.5 -83.5t-233 -231.5t-84.5 -330z" />
<glyph unicode="&#xaa;" horiz-adv-x="897" d="M717 1354l28 80h207l-116 -662h-213l8 96q-36 -56 -98 -85t-125 -29q-124 0 -205.5 72.5t-81.5 207.5q0 101 33 181.5t91 131.5t133 78t161 27q65 0 113 -26.5t65 -71.5zM528 1253q-71 0 -123.5 -47.5t-56.5 -130.5q-1 -58 32 -89.5t89 -31.5q89 0 141 77 q45 65 31.5 134.5t-80.5 84.5q-15 3 -33 3zM47 444l35 201h745l-34 -201h-746z" />
<glyph unicode="&#xab;" horiz-adv-x="1155" d="M63 608l365 455h313v2l-364 -457q151 -348 205 -456h-314zM485 608l365 455h315v2l-364 -457l205 -456h-316z" />
<glyph unicode="&#xac;" horiz-adv-x="1110" d="M997 795l-88 -500h-247l45 254h-590l43 246h837z" />
<glyph unicode="&#xad;" horiz-adv-x="1011" d="M98 471l45 256h768l-45 -256h-768z" />
<glyph unicode="&#xae;" horiz-adv-x="1705" d="M1040 612l123 -264h-227l-84 221h-86l-39 -221h-211l131 742h340q84 0 143 -31t84 -78.5t26 -105t-22 -110t-70 -95t-108 -58.5zM963 907h-142l-28 -166h143q55 0 80 52q23 47 2 84q-17 30 -55 30zM1014 1477q153 0 273.5 -46t198.5 -129t118.5 -194.5t40.5 -245.5 q0 -183 -61 -343t-173.5 -279.5t-283 -188.5t-377.5 -69q-152 0 -275 46.5t-204.5 129t-125 196.5t-43.5 250q0 141 41.5 272t122 240t190 190t253.5 126t305 45zM326 631q-8 -203 112 -327t330 -124q189 0 336 83.5t229.5 232.5t87.5 340q6 205 -104 322.5t-322 117.5 q-150 0 -275 -49t-209.5 -135t-132.5 -204.5t-52 -256.5z" />
<glyph unicode="&#xaf;" horiz-adv-x="927" d="M313 1194l43 244h736l-43 -244h-736z" />
<glyph unicode="&#xb0;" horiz-adv-x="749" d="M496 1296q-69 0 -110.5 -42.5t-41.5 -96.5q0 -42 27.5 -71t79.5 -29q68 0 109.5 42t41.5 95q0 42 -27 72t-79 30zM522 1454q122 0 185 -67.5t63 -167.5q0 -125 -96 -221.5t-252 -96.5q-117 0 -181.5 67t-64.5 165q0 79 39 151t120.5 121t186.5 49z" />
<glyph unicode="&#xb1;" horiz-adv-x="1114" d="M133 639l49 276h287l51 293h287l-51 -293h286l-49 -276h-286l-52 -291h-286l51 291h-287zM20 23l46 258h868l-45 -258h-869z" />
<glyph unicode="&#xb2;" horiz-adv-x="772" d="M403 1329h-200q24 112 123.5 176t222.5 64q127 0 202.5 -54t75.5 -157q0 -72 -26 -124.5t-67.5 -80.5t-92.5 -47t-102.5 -29t-95.5 -20t-74 -27t-35 -43h424l-35 -196h-619l35 196q10 62 41.5 106.5t74 68t92 39t96.5 25.5t85.5 20.5t62 29.5t23.5 49q0 41 -44.5 56.5 t-96 0t-70.5 -52.5z" />
<glyph unicode="&#xb3;" horiz-adv-x="786" d="M473 1102h-119l29 153h111q65 0 96 22.5t31 57.5q0 57 -103 60q-47 2 -85 -13t-48 -45h-182q10 59 46 105t87 73t106.5 40.5t110.5 13.5q108 0 191 -56t83 -155q0 -125 -127 -180q43 -17 68 -56t25 -86q0 -76 -36 -130.5t-95.5 -82t-120.5 -39.5t-127 -12 q-57 0 -109.5 14t-96 41.5t-65.5 75.5t-12 109h215q-1 -32 26 -45t72 -13q52 0 91.5 22t39.5 62q0 64 -102 64z" />
<glyph unicode="&#xb4;" horiz-adv-x="569" d="M778 1430l-2 -13l-289 -289h-258l2 15l203 287h344z" />
<glyph unicode="&#xb5;" horiz-adv-x="1263" d="M1057 0h-256l-13 104q-39 -70 -106 -108t-141 -43t-131.5 30.5t-75.5 102.5l-92 -522h-283l256 1448h297l-98 -557q-19 -104 32 -164t134 -60q86 0 162.5 63.5t99.5 182.5l94 535h299z" />
<glyph unicode="&#xb6;" horiz-adv-x="1761" d="M967 1130l-277 -1564h-321l143 819q-240 19 -343 181q-88 137 -51 326q36 187 174 332q167 175 409 205q44 5 90 5h1024l-54 -304h-174l-276 -1564h-322l277 1564h-299z" />
<glyph unicode="&#xb7;" horiz-adv-x="569" d="M102 580q0 95 65.5 149.5t149.5 54.5q63 0 105.5 -38t42.5 -107q0 -98 -65.5 -151.5t-151.5 -53.5q-63 0 -104.5 38.5t-41.5 107.5z" />
<glyph unicode="&#xb8;" horiz-adv-x="745" d="M41 -367l143 115q19 -30 55.5 -49.5t77.5 -20.5q34 -2 61.5 13t39.5 45q16 37 -10.5 64.5t-70 28.5t-87.5 -24l-57 50l106 196h211l-53 -100q54 -3 93.5 -21t60 -44.5t30 -60t7 -66.5t-12.5 -66q-22 -73 -80 -122.5t-127 -68.5t-143 -14q-81 5 -148.5 43t-95.5 102z" />
<glyph unicode="&#xb9;" horiz-adv-x="579" d="M104 793l31 178h127l64 352l-111 -23l31 173l325 81l-104 -583h131l-31 -178h-463z" />
<glyph unicode="&#xba;" horiz-adv-x="870" d="M41 446l35 203h729l-35 -203h-729zM457 748q-147 0 -234.5 73t-87.5 215q0 132 61 227.5t161 142t225 46.5q147 0 233 -73t86 -212q0 -131 -60 -227.5t-159.5 -144t-224.5 -47.5zM494 954q72 0 125 47t53 129q0 58 -35.5 90.5t-91.5 32.5q-69 0 -124.5 -49t-55.5 -127 q0 -59 36 -91t93 -32z" />
<glyph unicode="&#xbb;" horiz-adv-x="1155" d="M887 1067l205 -455l-365 -454h-315l364 454l-205 457v-2h316zM467 1067l205 -455l-365 -454h-313l364 454l-204 457v-2h313z" />
<glyph unicode="&#xbc;" horiz-adv-x="1648" d="M1245 758h266l-79 -455h92l-31 -178h-92l-23 -125h-196l22 125h-403l22 176zM1235 303l45 256l-248 -256h203zM414 -2h-246l1055 1452h250zM102 676l33 180h127l62 350l-113 -22l31 172l327 82l-102 -582h129l-33 -180h-461z" />
<glyph unicode="&#xbd;" horiz-adv-x="1683" d="M412 -4h-246l1055 1454h249zM98 674l33 180h127l61 352l-110 -24l31 174l325 82l-102 -584h131l-33 -180h-463zM1169 528h-200q24 112 123.5 176t222.5 64q127 0 202.5 -54t75.5 -157q0 -72 -26 -124t-67.5 -80.5t-92.5 -47t-102.5 -29t-95.5 -20t-74 -27t-35 -43.5h424 l-35 -196h-619l35 196q10 62 41.5 106.5t74 68t92 39t96.5 25.5t85.5 20.5t62 29.5t23.5 49q0 41 -46 55.5t-97.5 -1.5t-67.5 -50z" />
<glyph unicode="&#xbe;" horiz-adv-x="1724" d="M461 1014h-113l25 147h104q63 0 87 11t34 55q0 7 -0.5 11.5t-5.5 16t-14 18.5t-28.5 13t-47.5 6q-52 0 -79 -10t-46 -43h-178q13 74 69.5 126t126 73.5t142.5 21.5q106 0 185 -53.5t79 -151.5q0 -51 -32 -101.5t-85 -66.5q39 -13 60.5 -49t21.5 -77q0 -68 -35.5 -121 t-92 -82.5t-119 -44.5t-124.5 -15q-53 0 -102 13t-90 39t-61.5 72.5t-10.5 105.5h205q26 -51 100 -51q48 0 84.5 19t36.5 54q0 64 -96 64zM500 -12h-248l1063 1462h250zM1323 758h266l-80 -455h93l-31 -178h-92l-23 -125h-196l22 125h-403l22 176zM1313 303l45 256 l-248 -256h203z" />
<glyph unicode="&#xbf;" horiz-adv-x="1183" d="M690 1065q105 0 143 -80q32 -70 -4 -153q-37 -85 -121 -116q-41 -15 -87 -14q-112 3 -148 85q-31 70 9 152q42 85 131 114q37 12 77 12zM702 35h322q-75 -453 -612 -453q-207 0 -337 98.5t-126 260.5q1 62 19 113t43 86t67.5 71t79 59t93.5 60t95 65q59 44 78.5 85.5 t24.5 113.5h317q-4 -74 -25 -136t-56 -107.5t-71 -76.5t-82 -59q-20 -11 -55 -29.5t-52 -28t-42.5 -25.5t-38 -29t-26.5 -32t-20 -40.5t-7 -48.5q-2 -56 43 -90.5t127 -34.5q197 0 241 178z" />
<glyph unicode="&#xc0;" horiz-adv-x="1619" d="M1192 0l-62 246h-735l-147 -246h-357l895 1434h349l391 -1434h-334zM1059 528l-141 588l-353 -588h494zM676 1839l2 12h344l100 -286l-2 -15h-258z" />
<glyph unicode="&#xc1;" horiz-adv-x="1619" d="M1192 0l-62 246h-735l-147 -246h-357l895 1434h349l391 -1434h-334zM1059 528l-141 588l-353 -588h494zM1376 1851l-2 -12l-289 -289h-258l2 15l203 286h344z" />
<glyph unicode="&#xc2;" horiz-adv-x="1619" d="M1192 0l-62 246h-735l-147 -246h-357l895 1434h349l391 -1434h-334zM1059 528l-141 588l-353 -588h494zM958 1858h154l254 -287l-2 -10h-287l-82 86l-108 -86h-289l2 10z" />
<glyph unicode="&#xc3;" horiz-adv-x="1619" d="M1192 0l-62 246h-735l-147 -246h-357l895 1434h349l391 -1434h-334zM1059 528l-141 588l-353 -588h494zM766 1544l-156 103q146 233 330 184q23 -6 55.5 -22.5t55 -26.5t48.5 -14t49 12t44 53l166 -90q-78 -131 -154.5 -173.5t-163.5 -10.5q-22 8 -51.5 22.5t-48.5 24 t-44 15.5t-44.5 1.5t-42 -24t-43.5 -54.5z" />
<glyph unicode="&#xc4;" horiz-adv-x="1619" d="M1192 0l-62 246h-735l-147 -246h-357l895 1434h349l391 -1434h-334zM1059 528l-141 588l-353 -588h494zM590 1683q0 92 60 141.5t138 49.5q57 0 95.5 -36t38.5 -99q0 -88 -60.5 -137.5t-138.5 -49.5q-58 0 -95.5 34t-37.5 97zM1122 1688q0 87 62 136.5t139 49.5 q56 0 93.5 -35.5t37.5 -99.5q0 -74 -56.5 -130.5t-133.5 -56.5q-62 0 -102 36t-40 100z" />
<glyph unicode="&#xc5;" horiz-adv-x="1619" d="M1135 1427h-351q-82 59 -82 172q0 95 53 166t129.5 104.5t159.5 33.5q99 0 170.5 -59.5t71.5 -162.5q0 -160 -151 -254zM1010 1743q-81 0 -118 -59q-31 -49 -8 -93q23 -47 91 -47q81 0 118 59q30 49 7 94q-24 46 -90 46zM1192 0l-62 246h-735l-147 -246h-357l895 1434 h349l391 -1434h-334zM1059 528l-141 588l-353 -588h494z" />
<glyph unicode="&#xc6;" horiz-adv-x="1839" d="M1694 283l-49 -283h-838l39 223h-455l-168 -223h-373l1119 1434h895l-49 -279h-519l-51 -295h484l-48 -270h-483l-55 -307h551zM604 504h291l104 520z" />
<glyph unicode="&#xc7;" horiz-adv-x="1429" d="M575 -16h211l-49 -93q68 -4 111.5 -27.5t59.5 -60t16 -76t-13 -81.5q-31 -97 -116.5 -151t-178.5 -57t-178.5 35.5t-118.5 110.5l144 105q20 -29 67.5 -49t97.5 -13.5t68 49.5q16 37 -10.5 65t-70 29t-87.5 -24l-55 49zM1161 395l160 -221q-247 -211 -588 -211 q-164 0 -291 48.5t-203.5 133t-115.5 192.5t-39 234q0 130 36 257t112 242.5t182.5 203.5t257.5 140t327 52q303 0 488 -221l-234 -194q-51 60 -132.5 88t-174.5 28q-117 0 -215 -42.5t-162 -111.5t-103 -148t-52 -160q-5 -45 -6 -90.5t10 -89.5t28.5 -83.5t49.5 -73t72 -58 t96 -38.5t122 -14q91 0 198 37t177 100z" />
<glyph unicode="&#xc8;" horiz-adv-x="1343" d="M1198 295l-51 -295h-1092l252 1434h1063l-51 -293h-750l-49 -277h707l-49 -280h-707l-51 -289h778zM582 1862l2 12h344l100 -287l-2 -14h-258z" />
<glyph unicode="&#xc9;" horiz-adv-x="1343" d="M1198 295l-51 -295h-1092l252 1434h1063l-51 -293h-750l-49 -277h707l-49 -280h-707l-51 -289h778zM1264 1874l-2 -12l-289 -289h-258l2 14l203 287h344z" />
<glyph unicode="&#xca;" horiz-adv-x="1343" d="M1198 295l-51 -295h-1092l252 1434h1063l-51 -293h-750l-49 -277h707l-49 -280h-707l-51 -289h778zM858 1870h154l254 -287l-2 -10h-287l-82 86l-109 -86h-288l2 10z" />
<glyph unicode="&#xcb;" horiz-adv-x="1343" d="M1198 295l-51 -295h-1092l252 1434h1063l-51 -293h-750l-49 -277h707l-49 -280h-707l-51 -289h778zM492 1690q0 86 59 134t137 48q56 0 94.5 -35t38.5 -94q0 -86 -59.5 -132t-138.5 -46q-58 0 -94.5 32t-36.5 93zM1022 1694q0 83 62 130.5t139 47.5q56 0 93.5 -34.5 t37.5 -94.5q0 -72 -56.5 -125t-134.5 -53q-62 0 -101.5 34t-39.5 95z" />
<glyph unicode="&#xcc;" horiz-adv-x="641" d="M373 0h-318l252 1434h318zM190 1849l3 13h344l100 -287l-2 -14h-258z" />
<glyph unicode="&#xcd;" horiz-adv-x="641" d="M373 0h-318l252 1434h318zM889 1853l-2 -12l-289 -289h-258l2 15l203 286h344z" />
<glyph unicode="&#xce;" horiz-adv-x="641" d="M373 0h-318l252 1434h318zM469 1864h154l254 -287l-3 -10h-286l-82 86l-109 -86h-288l2 10z" />
<glyph unicode="&#xcf;" horiz-adv-x="641" d="M111 1690q0 91 61 140.5t139 49.5q56 0 93.5 -35.5t37.5 -99.5q0 -88 -60 -137t-138 -49q-58 0 -95.5 34t-37.5 97zM608 1694q0 87 62 136.5t139 49.5q56 0 92.5 -35.5t36.5 -99.5q0 -74 -56.5 -130t-133.5 -56q-62 0 -101 35.5t-39 99.5zM373 0h-318l252 1434h318z" />
<glyph unicode="&#xd0;" horiz-adv-x="1564" d="M23 586l45 256h723l-46 -256h-722zM330 1434h588q154 0 272 -46t188.5 -127t106 -183.5t35.5 -223.5q0 -105 -21.5 -206t-64 -197.5t-113 -177.5t-162.5 -142.5t-218.5 -96t-274.5 -34.5h-588zM596 1145l-152 -850h273q110 0 197.5 35t140 89.5t87 126t47.5 137.5t13 132 q0 67 -18 124t-55.5 104.5t-104 74.5t-156.5 27h-272z" />
<glyph unicode="&#xd1;" horiz-adv-x="1622" d="M582 1434l559 -932l59 450l84 482h322l-252 -1434h-275l-551 918l-71 -472l-78 -446h-324l252 1434h275zM750 1556l-166 109q156 243 350 195q24 -6 58.5 -23t58.5 -28t52 -15.5t52 12t45 56.5l176 -97q-83 -138 -164.5 -182.5t-171.5 -11.5q-26 9 -64.5 28t-62 28.5 t-53 12t-56.5 -18t-54 -65.5z" />
<glyph unicode="&#xd2;" horiz-adv-x="1716" d="M1667 850q0 -197 -71 -364t-194 -280.5t-292.5 -177t-364.5 -63.5q-303 0 -480 166t-177 453q0 197 71 364t194 280t292.5 176.5t364.5 63.5q303 0 480 -165.5t177 -452.5zM1337 717q24 130 -14.5 236t-134 167.5t-230.5 61.5q-150 0 -277 -73.5t-200 -198t-73 -269.5 q0 -171 105 -279t282 -108q208 0 356.5 129.5t185.5 333.5zM737 1882l2 12h344l101 -286l-2 -15h-258z" />
<glyph unicode="&#xd3;" horiz-adv-x="1716" d="M1667 850q0 -197 -71 -364t-194 -280.5t-292.5 -177t-364.5 -63.5q-303 0 -480 166t-177 453q0 197 71 364t194 280t292.5 176.5t364.5 63.5q303 0 480 -165.5t177 -452.5zM1337 717q24 130 -14.5 236t-134 167.5t-230.5 61.5q-150 0 -277 -73.5t-200 -198t-73 -269.5 q0 -171 105 -279t282 -108q208 0 356.5 129.5t185.5 333.5zM1456 1888l-2 -12l-289 -289h-258l2 15l203 286h344z" />
<glyph unicode="&#xd4;" horiz-adv-x="1716" d="M1667 850q0 -197 -71 -364t-194 -280.5t-292.5 -177t-364.5 -63.5q-303 0 -480 166t-177 453q0 197 71 364t194 280t292.5 176.5t364.5 63.5q303 0 480 -165.5t177 -452.5zM1337 717q24 130 -14.5 236t-134 167.5t-230.5 61.5q-150 0 -277 -73.5t-200 -198t-73 -269.5 q0 -171 105 -279t282 -108q208 0 356.5 129.5t185.5 333.5zM1028 1884h164l268 -291l-2 -10h-303l-88 86l-115 -86h-307l2 10z" />
<glyph unicode="&#xd5;" horiz-adv-x="1716" d="M1667 850q0 -197 -71 -364t-194 -280.5t-292.5 -177t-364.5 -63.5q-303 0 -480 166t-177 453q0 197 71 364t194 280t292.5 176.5t364.5 63.5q303 0 480 -165.5t177 -452.5zM1337 717q24 130 -14.5 236t-134 167.5t-230.5 61.5q-150 0 -277 -73.5t-200 -198t-73 -269.5 q0 -171 105 -279t282 -108q208 0 356.5 129.5t185.5 333.5zM827 1579l-163 107q154 241 346 194q22 -7 56.5 -25.5t58 -28.5t51.5 -14t52 13t44 57l174 -96q-83 -137 -162.5 -181.5t-169.5 -11.5q-22 8 -54 24t-52 25.5t-46.5 16t-46.5 1.5t-43.5 -24.5t-44.5 -56.5z" />
<glyph unicode="&#xd6;" horiz-adv-x="1716" d="M1667 850q0 -197 -71 -364t-194 -280.5t-292.5 -177t-364.5 -63.5q-303 0 -480 166t-177 453q0 197 71 364t194 280t292.5 176.5t364.5 63.5q303 0 480 -165.5t177 -452.5zM1337 717q24 130 -14.5 236t-134 167.5t-230.5 61.5q-150 0 -277 -73.5t-200 -198t-73 -269.5 q0 -171 105 -279t282 -108q208 0 356.5 129.5t185.5 333.5zM631 1704q0 92 59.5 141t138.5 49q57 0 95.5 -36t38.5 -99q0 -88 -60.5 -137t-138.5 -49q-58 0 -95.5 34t-37.5 97zM1163 1708q0 87 62 136.5t139 49.5q56 0 93.5 -35.5t37.5 -99.5q0 -74 -56.5 -130t-133.5 -56 q-62 0 -102 35.5t-40 99.5z" />
<glyph unicode="&#xd7;" horiz-adv-x="944" d="M377 1014l139 -183l215 183l150 -183l-224 -192l156 -186l-213 -174l-151 184l-211 -184l-158 188l213 178l-146 180z" />
<glyph unicode="&#xd8;" horiz-adv-x="1642" d="M-6 -143l1349 1714h308l-1352 -1714h-305zM1604 846q0 -158 -44 -297t-124 -245t-190 -182.5t-245.5 -116.5t-285.5 -40q-293 0 -464 165t-171 450q0 197 68.5 362.5t188 278.5t283 176t351.5 63q292 0 462.5 -164.5t170.5 -449.5zM1286 713q23 129 -13.5 234.5 t-128.5 167t-222 61.5q-109 0 -207.5 -43t-170 -115.5t-113.5 -172t-42 -208.5q0 -170 102 -277.5t271 -107.5q201 0 344.5 129t179.5 332z" />
<glyph unicode="&#xd9;" horiz-adv-x="1587" d="M1274 1432h317l-141 -801q-57 -323 -250 -494.5t-495 -171.5q-128 0 -231.5 30t-181.5 90.5t-120.5 158.5t-42.5 227q0 80 14 160l142 801h317l-141 -801q-12 -61 -12 -115q0 -130 68 -198t202 -68q175 0 276.5 101t137.5 280zM664 1855l2 13h344l100 -287l-2 -14h-258z " />
<glyph unicode="&#xda;" horiz-adv-x="1587" d="M1274 1432h317l-141 -801q-57 -323 -250 -494.5t-495 -171.5q-128 0 -231.5 30t-181.5 90.5t-120.5 158.5t-42.5 227q0 80 14 160l142 801h317l-141 -801q-12 -61 -12 -115q0 -130 68 -198t202 -68q175 0 276.5 101t137.5 280zM1368 1862l-2 -13l-289 -288h-258l2 14 l203 287h344z" />
<glyph unicode="&#xdb;" horiz-adv-x="1587" d="M1274 1432h317l-141 -801q-57 -323 -250 -494.5t-495 -171.5q-128 0 -231.5 30t-181.5 90.5t-120.5 158.5t-42.5 227q0 80 14 160l142 801h317l-141 -801q-12 -61 -12 -115q0 -130 68 -198t202 -68q175 0 276.5 101t137.5 280zM942 1870h162l266 -289l-2 -10h-301l-86 86 l-115 -86h-303l2 10z" />
<glyph unicode="&#xdc;" horiz-adv-x="1587" d="M1274 1432h317l-141 -801q-57 -323 -250 -494.5t-495 -171.5q-128 0 -231.5 30t-181.5 90.5t-120.5 158.5t-42.5 227q0 80 14 160l142 801h317l-141 -801q-12 -61 -12 -115q0 -130 68 -198t202 -68q175 0 276.5 101t137.5 280zM571 1706q0 91 60 140.5t139 49.5 q57 0 95 -36t38 -99q0 -88 -60 -137t-138 -49q-59 0 -96.5 34t-37.5 97zM1104 1710q0 87 62 136.5t139 49.5q56 0 93.5 -35.5t37.5 -99.5q0 -74 -57 -130t-134 -56q-62 0 -101.5 35.5t-39.5 99.5z" />
<glyph unicode="&#xdd;" horiz-adv-x="1443" d="M506 1434l244 -570l462 570h375l-2 -17l-723 -848l-100 -569h-320l101 569l-400 848l2 17h361zM1280 1870l-2 -12l-289 -289h-258l2 14l203 287h344z" />
<glyph unicode="&#xde;" horiz-adv-x="1406" d="M55 0l254 1432h316l-39 -230h340q256 0 381 -150q100 -121 83 -295q-17 -173 -141 -312q-148 -167 -383 -201q-55 -8 -112 -8h-338l-41 -236h-320zM535 911l-68 -391h338q135 0 212 90q62 73 52 158q-11 86 -92 123q-45 20 -105 20h-337z" />
<glyph unicode="&#xdf;" horiz-adv-x="1302" d="M446 -2q8 43 20.5 120.5t20.5 123.5q71 -15 130 -16t99.5 11.5t72 30t50 44t31 49.5t17.5 50t6.5 42t1.5 30q0 97 -67.5 141t-172.5 44h-90l51 280h68q93 0 147.5 29.5t65.5 83.5q14 76 -62 110q-73 32 -168 8q-102 -27 -138 -102l-11 -30q-47 -270 -89 -507t-64 -361 t-31 -179h-316l185 1051q33 191 211 305q156 101 355 105q195 4 320 -86q128 -93 128 -255q0 -69 -28 -132t-90 -113t-147 -68q125 -28 190.5 -110.5t65.5 -192.5q0 -109 -29 -197.5t-81 -149.5t-123 -102.5t-156 -59.5t-179 -17.5t-194 20.5z" />
<glyph unicode="&#xe0;" d="M952 895l31 117h277l-179 -1012h-266l6 127q-58 -73 -156.5 -111.5t-181.5 -38.5q-202 0 -321 115t-119 318q0 141 51.5 261t138.5 199t202.5 122.5t242.5 41.5q95 0 171.5 -38.5t102.5 -100.5zM662 774q-129 0 -223.5 -86.5t-94.5 -228.5q0 -102 61.5 -160.5 t161.5 -58.5q136 0 228 92t92 211q0 99 -57 165t-168 66zM459 1452l2 12h344l100 -286l-2 -15h-258z" />
<glyph unicode="&#xe1;" d="M952 895l31 117h277l-179 -1012h-266l6 127q-58 -73 -156.5 -111.5t-181.5 -38.5q-202 0 -321 115t-119 318q0 141 51.5 261t138.5 199t202.5 122.5t242.5 41.5q95 0 171.5 -38.5t102.5 -100.5zM662 774q-129 0 -223.5 -86.5t-94.5 -228.5q0 -102 61.5 -160.5 t161.5 -58.5q136 0 228 92t92 211q0 99 -57 165t-168 66zM1126 1464l-2 -12l-288 -289h-258l2 15l202 286h344z" />
<glyph unicode="&#xe2;" d="M952 895l31 117h277l-179 -1012h-266l6 127q-58 -73 -156.5 -111.5t-181.5 -38.5q-202 0 -321 115t-119 318q0 141 51.5 261t138.5 199t202.5 122.5t242.5 41.5q95 0 171.5 -38.5t102.5 -100.5zM662 774q-129 0 -223.5 -86.5t-94.5 -228.5q0 -102 61.5 -160.5 t161.5 -58.5q136 0 228 92t92 211q0 99 -57 165t-168 66zM721 1462h153l254 -286l-2 -11h-286l-82 86l-109 -86h-289l2 11z" />
<glyph unicode="&#xe3;" d="M537 1178l-154 110q155 244 340 187q22 -7 54 -25t55 -29.5t49.5 -16.5t51 11t46.5 55l164 -98q-155 -257 -324 -184q-26 9 -63 28t-60 28.5t-51 12.5t-54.5 -16.5t-53.5 -62.5zM952 895l31 117h277l-179 -1012h-266l6 127q-58 -73 -156.5 -111.5t-181.5 -38.5 q-202 0 -321 115t-119 318q0 141 51.5 261t138.5 199t202.5 122.5t242.5 41.5q95 0 171.5 -38.5t102.5 -100.5zM662 774q-129 0 -223.5 -86.5t-94.5 -228.5q0 -102 61.5 -160.5t161.5 -58.5q136 0 228 92t92 211q0 99 -57 165t-168 66z" />
<glyph unicode="&#xe4;" d="M952 895l31 117h277l-179 -1012h-266l6 127q-58 -73 -156.5 -111.5t-181.5 -38.5q-202 0 -321 115t-119 318q0 141 51.5 261t138.5 199t202.5 122.5t242.5 41.5q95 0 171.5 -38.5t102.5 -100.5zM662 774q-129 0 -223.5 -86.5t-94.5 -228.5q0 -102 61.5 -160.5 t161.5 -58.5q136 0 228 92t92 211q0 99 -57 165t-168 66zM408 1296q0 89 58 136t134 47q54 0 90.5 -34.5t36.5 -94.5q0 -85 -57 -133t-133 -48q-56 0 -92.5 33t-36.5 94zM922 1300q0 86 58.5 132.5t133.5 46.5q53 0 89 -34t36 -95q0 -71 -54 -126t-128 -55q-59 0 -97 35 t-38 96z" />
<glyph unicode="&#xe5;" d="M952 895l31 117h277l-179 -1012h-266l6 127q-58 -73 -156.5 -111.5t-181.5 -38.5q-202 0 -321 115t-119 318q0 141 51.5 261t138.5 199t202.5 122.5t242.5 41.5q95 0 171.5 -38.5t102.5 -100.5zM662 774q-129 0 -223.5 -86.5t-94.5 -228.5q0 -102 61.5 -160.5 t161.5 -58.5q136 0 228 92t92 211q0 99 -57 165t-168 66zM528 1325q0 57 20.5 104t53.5 77.5t76.5 51.5t89 30t92.5 9q99 0 165.5 -47.5t66.5 -144.5q0 -87 -51.5 -150.5t-122 -91.5t-144.5 -28q-65 0 -118 17.5t-90.5 62t-37.5 110.5zM829 1460q-58 0 -93.5 -33.5 t-35.5 -74.5q0 -33 24 -56.5t69 -23.5q58 0 93.5 33t35.5 73q0 35 -24 58.5t-69 23.5z" />
<glyph unicode="&#xe6;" horiz-adv-x="1974" d="M1876 420h-750q4 -92 75.5 -143.5t170.5 -51.5q68 0 140.5 23t123.5 61l125 -188q-168 -154 -434 -154q-94 0 -173 35.5t-118 106.5l-30 -109h-215l20 127q-43 -72 -144 -111t-188 -39q-205 -2 -321.5 102.5t-116.5 313.5q0 122 35.5 227t96 180t140 128.5t168.5 79.5 t181 26q95 0 170 -36t112 -103l31 115h221l-18 -103q72 69 167.5 101t186.5 32q142 0 244.5 -74.5t137 -212t-37.5 -333.5zM662 776q-133 0 -225.5 -86t-92.5 -233q0 -104 60.5 -164t160.5 -60q150 0 245 112q77 92 79 208q2 117 -78 178q-59 45 -149 45zM1171 637h471 q1 74 -46 111.5t-121 37.5q-212 0 -304 -149z" />
<glyph unicode="&#xe7;" horiz-adv-x="1044" d="M377 12l203 -14l-50 -78q58 -5 98 -23t58.5 -41.5t25 -54.5t4 -57t-10.5 -53q-25 -78 -82.5 -130t-128 -69t-143 -11.5t-135 40.5t-95.5 90l143 119q12 -19 44.5 -34.5t68.5 -22.5t69.5 4t47.5 42q16 35 -9 62.5t-69.5 30.5t-93.5 -21l-52 39zM782 326l152 -193 q-182 -156 -422 -156q-100 0 -184.5 26.5t-149 78t-101 135t-36.5 191.5q0 116 36 217.5t98.5 175.5t145.5 127t178.5 79.5t196.5 26.5q116 0 199 -31.5t143 -107.5l-196 -186q-69 59 -180 59q-129 0 -223.5 -84.5t-94.5 -220.5q0 -100 61.5 -156.5t157.5 -56.5 q53 0 115.5 20.5t103.5 55.5z" />
<glyph unicode="&#xe8;" horiz-adv-x="1179" d="M1077 410h-743q-2 -78 61.5 -128.5t182.5 -50.5q172 0 276 80l133 -184q-92 -76 -214.5 -113t-246.5 -37q-234 0 -358.5 119t-124.5 322q0 178 81 319.5t227 221t331 79.5q268 0 381 -163t14 -465zM373 625h479q7 78 -54 119.5t-159 41.5q-90 0 -160.5 -43t-105.5 -118z M436 1456l2 12h344l101 -286l-2 -15h-258z" />
<glyph unicode="&#xe9;" horiz-adv-x="1179" d="M1077 410h-743q-2 -78 61.5 -128.5t182.5 -50.5q172 0 276 80l133 -184q-92 -76 -214.5 -113t-246.5 -37q-234 0 -358.5 119t-124.5 322q0 178 81 319.5t227 221t331 79.5q268 0 381 -163t14 -465zM373 625h479q7 78 -54 119.5t-159 41.5q-90 0 -160.5 -43t-105.5 -118z M1116 1458l-2 -12l-289 -289h-258l2 14l203 287h344z" />
<glyph unicode="&#xea;" horiz-adv-x="1179" d="M1077 410h-743q-2 -78 61.5 -128.5t182.5 -50.5q172 0 276 80l133 -184q-92 -76 -214.5 -113t-246.5 -37q-234 0 -358.5 119t-124.5 322q0 178 81 319.5t227 221t331 79.5q268 0 381 -163t14 -465zM373 625h479q7 78 -54 119.5t-159 41.5q-90 0 -160.5 -43t-105.5 -118z M709 1460h153l254 -286l-2 -11h-287l-82 86l-108 -86h-289l2 11z" />
<glyph unicode="&#xeb;" horiz-adv-x="1179" d="M346 1280q0 82 58.5 130t132.5 48q54 0 92.5 -33.5t38.5 -93.5q0 -74 -57 -126t-136 -52q-56 0 -92.5 33.5t-36.5 93.5zM823 1278q0 85 59.5 132.5t135.5 47.5q54 0 90.5 -34t36.5 -93q0 -82 -58.5 -130t-130.5 -48q-57 0 -95 32.5t-38 92.5zM1077 410h-743 q-2 -78 61.5 -128.5t182.5 -50.5q172 0 276 80l133 -184q-92 -76 -214.5 -113t-246.5 -37q-234 0 -358.5 119t-124.5 322q0 178 81 319.5t227 221t331 79.5q268 0 381 -163t14 -465zM373 625h479q7 78 -54 119.5t-159 41.5q-90 0 -160.5 -43t-105.5 -118z" />
<glyph unicode="&#xec;" horiz-adv-x="546" d="M147 1419l3 13h321l49 -289l-2 -15h-254zM315 0h-297l179 1012h297z" />
<glyph unicode="&#xed;" horiz-adv-x="546" d="M690 1432l-2 -13l-219 -291h-254l2 15l152 289h321zM315 0h-297l179 1012h297z" />
<glyph unicode="&#xee;" horiz-adv-x="546" d="M315 0h-297l179 1012h297zM354 1458h135l224 -307l-2 -10h-252l-74 90l-94 -90h-256l2 10z" />
<glyph unicode="&#xef;" horiz-adv-x="546" d="M39 1270q0 82 55 129t125 47q57 0 94 -32.5t37 -92.5q0 -81 -56 -127.5t-126 -46.5q-57 0 -93 32t-36 91zM461 1270q0 82 55 129t125 47q57 0 94 -32.5t37 -92.5q0 -81 -56 -127.5t-126 -46.5q-57 0 -93 32t-36 91zM315 0h-297l179 1012h297z" />
<glyph unicode="&#xf0;" horiz-adv-x="1189" d="M754 1352l125 116l147 -137l-102 -96q90 -88 140 -207t55 -247.5t-21 -268.5q-46 -242 -203 -385t-410 -143q-111 0 -197.5 35t-139.5 95t-80 135t-27 161q0 191 116 347.5t328 211.5q82 20 178.5 11.5t149.5 -52.5q-36 84 -114.5 147.5t-161 94.5t-170.5 44l88 224 q162 -22 299 -86zM530 244q106 0 177.5 67.5t99.5 177.5q26 105 -27.5 173.5t-163.5 68.5q-118 0 -197 -86t-79 -194q0 -85 50.5 -146t139.5 -61z" />
<glyph unicode="&#xf1;" horiz-adv-x="1261" d="M1044 0h-296l94 535q40 235 -168 235q-100 0 -177.5 -73t-95.5 -175l-92 -522h-291l179 1012h266l-12 -129q151 156 354 153q425 0 334 -499zM545 1188l-150 100q139 229 318 180q21 -6 52.5 -22t53 -26t47 -14t47.5 11.5t41 52.5l160 -88q-140 -244 -305 -180 q-20 8 -49.5 22t-47.5 23t-42.5 15t-43 1.5t-40 -23t-41.5 -52.5z" />
<glyph unicode="&#xf2;" horiz-adv-x="1243" d="M510 -23q-221 0 -345 121.5t-124 317.5q0 171 84 312.5t234.5 223.5t336.5 82q219 0 345 -123t126 -321q0 -171 -82 -310.5t-233 -221t-342 -81.5zM557 240q75 0 135.5 27.5t97 73t55.5 99t19 109.5q0 58 -19.5 106t-69.5 81.5t-124 33.5q-73 0 -133 -28.5t-97 -74.5 t-57 -100t-20 -108q0 -92 53 -155.5t160 -63.5zM416 1442l2 12h344l100 -287l-2 -14h-258z" />
<glyph unicode="&#xf3;" horiz-adv-x="1243" d="M510 -23q-221 0 -345 121.5t-124 317.5q0 171 84 312.5t234.5 223.5t336.5 82q219 0 345 -123t126 -321q0 -171 -82 -310.5t-233 -221t-342 -81.5zM557 240q75 0 135.5 27.5t97 73t55.5 99t19 109.5q0 58 -19.5 106t-69.5 81.5t-124 33.5q-73 0 -133 -28.5t-97 -74.5 t-57 -100t-20 -108q0 -92 53 -155.5t160 -63.5zM1126 1458l-2 -12l-288 -289h-258l2 14l202 287h344z" />
<glyph unicode="&#xf4;" horiz-adv-x="1243" d="M510 -23q-221 0 -345 121.5t-124 317.5q0 171 84 312.5t234.5 223.5t336.5 82q219 0 345 -123t126 -321q0 -171 -82 -310.5t-233 -221t-342 -81.5zM557 240q75 0 135.5 27.5t97 73t55.5 99t19 109.5q0 58 -19.5 106t-69.5 81.5t-124 33.5q-73 0 -133 -28.5t-97 -74.5 t-57 -100t-20 -108q0 -92 53 -155.5t160 -63.5zM694 1462h154l254 -286l-2 -11h-287l-82 86l-108 -86h-289l2 11z" />
<glyph unicode="&#xf5;" horiz-adv-x="1243" d="M510 -23q-221 0 -345 121.5t-124 317.5q0 171 84 312.5t234.5 223.5t336.5 82q219 0 345 -123t126 -321q0 -171 -82 -310.5t-233 -221t-342 -81.5zM557 240q75 0 135.5 27.5t97 73t55.5 99t19 109.5q0 58 -19.5 106t-69.5 81.5t-124 33.5q-73 0 -133 -28.5t-97 -74.5 t-57 -100t-20 -108q0 -92 53 -155.5t160 -63.5zM520 1178l-155 102q146 233 329 184q23 -6 55.5 -22.5t55 -26.5t48.5 -14t49 12t44 53l166 -90q-78 -131 -154 -173t-163 -11q-22 8 -51.5 22.5t-49 24t-44.5 15.5t-44.5 1.5t-42 -23.5t-43.5 -54z" />
<glyph unicode="&#xf6;" horiz-adv-x="1243" d="M340 1284q0 89 62 139t139 50q57 0 94 -35t37 -99q0 -87 -59.5 -137.5t-135.5 -50.5q-57 0 -97 35t-40 98zM827 1284q0 86 62 137.5t137 51.5q57 0 95 -36t38 -100q0 -88 -60 -137t-138 -49q-57 0 -95.5 35t-38.5 98zM510 -23q-221 0 -345 121.5t-124 317.5 q0 171 84 312.5t234.5 223.5t336.5 82q219 0 345 -123t126 -321q0 -171 -82 -310.5t-233 -221t-342 -81.5zM557 240q75 0 135.5 27.5t97 73t55.5 99t19 109.5q0 58 -19.5 106t-69.5 81.5t-124 33.5q-73 0 -133 -28.5t-97 -74.5t-57 -100t-20 -108q0 -92 53 -155.5t160 -63.5 z" />
<glyph unicode="&#xf7;" horiz-adv-x="1128" d="M78 518l47 264h942l-47 -264h-942zM340 244q0 90 61.5 139t139.5 49q56 0 92.5 -35.5t36.5 -99.5q0 -86 -58.5 -136t-132.5 -50q-59 0 -99 35t-40 98zM475 1012q0 89 62 138.5t139 49.5q56 0 92.5 -34.5t36.5 -98.5q0 -86 -59.5 -137t-133.5 -51q-57 0 -97 35t-40 98z " />
<glyph unicode="&#xf8;" horiz-adv-x="1243" d="M1204 1128l-946 -1241h-252l948 1241h250zM510 -23q-221 0 -345 121.5t-124 317.5q0 171 84 312.5t234.5 223.5t336.5 82q219 0 345 -123t126 -321q0 -171 -82 -310.5t-233 -221t-342 -81.5zM557 240q75 0 135.5 27.5t97 73t55.5 99t19 109.5q0 58 -19.5 106t-69.5 81.5 t-124 33.5q-73 0 -133 -28.5t-97 -74.5t-57 -100t-20 -108q0 -92 53 -155.5t160 -63.5z" />
<glyph unicode="&#xf9;" horiz-adv-x="1263" d="M184 1012h297l-94 -535q-40 -235 168 -235q100 0 177 72.5t95 174.5l93 523h290l-178 -1012h-266l12 133q-80 -87 -166.5 -121t-187.5 -32q-60 0 -109 9.5t-94.5 31.5t-75.5 59t-51 92t-20 130t16 173zM436 1434l2 12h344l101 -287l-2 -14h-258z" />
<glyph unicode="&#xfa;" horiz-adv-x="1263" d="M184 1012h297l-94 -535q-40 -235 168 -235q100 0 177 72.5t95 174.5l93 523h290l-178 -1012h-266l12 133q-80 -87 -166.5 -121t-187.5 -32q-60 0 -109 9.5t-94.5 31.5t-75.5 59t-51 92t-20 130t16 173zM1110 1454l-2 -12l-289 -289h-258l2 14l203 287h344z" />
<glyph unicode="&#xfb;" horiz-adv-x="1263" d="M184 1012h297l-94 -535q-40 -235 168 -235q100 0 177 72.5t95 174.5l93 523h290l-178 -1012h-266l12 133q-80 -87 -166.5 -121t-187.5 -32q-60 0 -109 9.5t-94.5 31.5t-75.5 59t-51 92t-20 130t16 173zM696 1458h154l254 -287l-2 -10h-287l-82 86l-108 -86h-289l2 10z " />
<glyph unicode="&#xfc;" horiz-adv-x="1263" d="M184 1012h297l-94 -535q-40 -235 168 -235q100 0 177 72.5t95 174.5l93 523h290l-178 -1012h-266l12 133q-80 -87 -166.5 -121t-187.5 -32q-60 0 -109 9.5t-94.5 31.5t-75.5 59t-51 92t-20 130t16 173zM342 1278q0 87 61 133.5t140 46.5q57 0 95 -34t38 -95 q0 -85 -60 -130.5t-139 -45.5q-59 0 -97 32.5t-38 92.5zM877 1282q0 83 61.5 129.5t138.5 46.5q56 0 93.5 -34t37.5 -95q0 -70 -56.5 -123t-133.5 -53q-62 0 -101.5 34t-39.5 95z" />
<glyph unicode="&#xfd;" horiz-adv-x="1257" d="M180 1012h295l-90 -516q-19 -109 16 -177.5t134 -68.5q102 0 183.5 75.5t102.5 180.5l90 506h293l-184 -1041q-21 -127 -78 -225t-136.5 -156.5t-172 -88t-193.5 -29.5q-209 0 -328 100t-112 305h276q0 -43 17 -71.5t49 -41.5t63.5 -17.5t75.5 -4.5q85 0 161.5 60.5 t96.5 166.5l27 152q-46 -48 -87.5 -76.5t-88.5 -41.5t-84 -16t-100 -3q-180 0 -270.5 136.5t-47.5 373.5zM1120 1450l-2 -12l-289 -289h-258l2 14l203 287h344z" />
<glyph unicode="&#xfe;" horiz-adv-x="1314" d="M637 258q120 0 208.5 80.5t88.5 206.5q0 93 -59 149t-152 56q-111 0 -204 -85.5t-93 -193.5q0 -88 60.5 -150.5t150.5 -62.5zM240 -422h-295l327 1856h295l-94 -531q57 64 149.5 97.5t170.5 33.5q204 0 323 -109t119 -317q0 -150 -48 -271.5t-131.5 -200.5t-195.5 -121 t-242 -42q-81 0 -164.5 32.5t-119.5 103.5z" />
<glyph unicode="&#xff;" horiz-adv-x="1257" d="M180 1012h295l-90 -516q-19 -109 16 -177.5t134 -68.5q102 0 183.5 75.5t102.5 180.5l90 506h293l-184 -1041q-21 -127 -78 -225t-136.5 -156.5t-172 -88t-193.5 -29.5q-209 0 -328 100t-112 305h276q0 -43 17 -71.5t49 -41.5t63.5 -17.5t75.5 -4.5q85 0 161.5 60.5 t96.5 166.5l27 152q-46 -48 -87.5 -76.5t-88.5 -41.5t-84 -16t-100 -3q-180 0 -270.5 136.5t-47.5 373.5zM324 1276q0 92 59.5 141t138.5 49q57 0 95 -36t38 -99q0 -88 -60 -137t-138 -49q-58 0 -95.5 34t-37.5 97zM856 1280q0 87 62 136.5t139 49.5q56 0 93.5 -35.5 t37.5 -99.5q0 -74 -57 -130t-134 -56q-62 0 -101.5 35.5t-39.5 99.5z" />
<glyph unicode="&#x152;" horiz-adv-x="2115" d="M1976 283l-47 -279h-948q-137 -39 -272 -39q-156 0 -275.5 45t-194 126.5t-112 191t-37.5 243.5q0 151 36.5 286t110.5 246.5t178.5 193t248 126.5t311.5 45q101 0 256 -32h907l-49 -275h-619l-51 -291h580l-49 -276h-580l-55 -311h661zM426 721q-13 -61 -10.5 -121.5 t14 -115.5t41 -101.5t70 -80.5t102 -53.5t137.5 -19.5q139 0 246 39l156 893q-112 45 -240 45q-201 0 -337.5 -130t-178.5 -355z" />
<glyph unicode="&#x153;" horiz-adv-x="1957" d="M510 -23q-221 0 -345 121.5t-124 317.5q0 171 84.5 313t235.5 224.5t337 82.5q123 0 214 -49t139 -137q76 89 182.5 138.5t228.5 49.5q176 0 286.5 -71t142.5 -211t-36 -348h-749q-2 -77 64 -128t186 -51q172 0 276 80l133 -184q-92 -76 -214.5 -114t-245.5 -38 q-135 0 -228.5 51.5t-142.5 141.5q-77 -88 -187.5 -138.5t-236.5 -50.5zM557 242q74 0 135 27.5t99 72t58.5 97.5t20.5 106q0 94 -55 159.5t-164 65.5q-73 0 -133 -28.5t-96.5 -74t-56 -99t-19.5 -107.5q0 -90 52 -154.5t159 -64.5zM1145 623h491q7 78 -54 120.5t-159 42.5 q-91 0 -167 -44t-111 -119z" />
<glyph unicode="&#x178;" horiz-adv-x="1443" d="M506 1434l244 -570l462 570h375l-2 -17l-723 -848l-100 -569h-320l101 569l-400 848l2 17h361zM483 1690q0 89 58 135.5t137 46.5q56 0 93.5 -34t37.5 -95q0 -85 -59.5 -132.5t-135.5 -47.5q-58 0 -94.5 33t-36.5 94zM1008 1694q0 86 60 132t136 46q56 0 93.5 -34 t37.5 -95q0 -71 -56 -125.5t-132 -54.5q-62 0 -100.5 35t-38.5 96z" />
<glyph unicode="&#x2c6;" horiz-adv-x="923" d="M635 1473h153l254 -287l-2 -10h-286l-82 86l-109 -86h-289l2 10z" />
<glyph unicode="&#x2dc;" horiz-adv-x="856" d="M459 1319l-156 102q146 234 330 185q23 -6 55.5 -22.5t55 -26.5t48.5 -14t49 12t44 53l166 -90q-78 -131 -154.5 -173.5t-163.5 -11.5q-22 8 -51.5 22.5t-48.5 24t-44 15.5t-44.5 1.5t-42 -23.5t-43.5 -54z" />
<glyph unicode="&#x2000;" horiz-adv-x="951" />
<glyph unicode="&#x2001;" horiz-adv-x="1903" />
<glyph unicode="&#x2002;" horiz-adv-x="951" />
<glyph unicode="&#x2003;" horiz-adv-x="1903" />
<glyph unicode="&#x2004;" horiz-adv-x="634" />
<glyph unicode="&#x2005;" horiz-adv-x="475" />
<glyph unicode="&#x2006;" horiz-adv-x="317" />
<glyph unicode="&#x2007;" horiz-adv-x="317" />
<glyph unicode="&#x2008;" horiz-adv-x="237" />
<glyph unicode="&#x2009;" horiz-adv-x="380" />
<glyph unicode="&#x200a;" horiz-adv-x="105" />
<glyph unicode="&#x2010;" horiz-adv-x="1011" d="M98 471l45 256h768l-45 -256h-768z" />
<glyph unicode="&#x2011;" horiz-adv-x="1011" d="M98 471l45 256h768l-45 -256h-768z" />
<glyph unicode="&#x2012;" horiz-adv-x="1011" d="M98 471l45 256h768l-45 -256h-768z" />
<glyph unicode="&#x2013;" horiz-adv-x="1220" d="M90 457l45 256h985l-45 -256h-985z" />
<glyph unicode="&#x2014;" horiz-adv-x="1409" d="M90 463l45 256h1176l-45 -256h-1176z" />
<glyph unicode="&#x2018;" horiz-adv-x="563" d="M629 1436l-189 -500h-301l262 500h228z" />
<glyph unicode="&#x2019;" horiz-adv-x="555" d="M154 938l188 496h301l-260 -496h-229z" />
<glyph unicode="&#x201a;" horiz-adv-x="575" d="M-98 -276l188 495h299l-260 -495h-227z" />
<glyph unicode="&#x201c;" horiz-adv-x="919" d="M983 1432l-188 -496h-277l236 496h229zM629 1432l-209 -496h-279l258 496h230z" />
<glyph unicode="&#x201d;" horiz-adv-x="909" d="M154 936l188 496h276l-235 -496h-229zM508 936l209 496h278l-258 -496h-229z" />
<glyph unicode="&#x201e;" horiz-adv-x="962" d="M-98 -276l188 495h299l-260 -495h-227zM289 -276l188 495h299l-260 -495h-227z" />
<glyph unicode="&#x2022;" horiz-adv-x="862" d="M389 369q-109 0 -175.5 63.5t-66.5 167.5q0 137 100.5 230.5t237.5 93.5q106 0 173 -65t67 -169q0 -138 -99.5 -229.5t-236.5 -91.5z" />
<glyph unicode="&#x2026;" horiz-adv-x="1642" d="M23 125q0 92 60 143t140 51q59 0 100.5 -37t41.5 -102q0 -88 -62.5 -140t-138.5 -52q-60 0 -100.5 36t-40.5 101zM575 125q0 91 62 142.5t139 51.5q60 0 101 -37t41 -102q0 -88 -62.5 -140t-138.5 -52q-60 0 -101 36t-41 101zM1128 125q0 91 62 142.5t139 51.5 q60 0 100.5 -37t40.5 -102q0 -88 -62 -140t-138 -52q-60 0 -101 36t-41 101z" />
<glyph unicode="&#x202f;" horiz-adv-x="380" />
<glyph unicode="&#x2039;" horiz-adv-x="731" d="M63 604l365 455h313v2l-364 -457q155 -356 205 -457h-314z" />
<glyph unicode="&#x203a;" horiz-adv-x="733" d="M467 1069l205 -455l-365 -454h-313l362 454l-202 457v-2h313z" />
<glyph unicode="&#x205f;" horiz-adv-x="475" />
<glyph unicode="&#x20ac;" horiz-adv-x="1290" d="M61 432l39 223h123l8 52q3 12 6.5 32t6.5 31h-123l41 227h170q109 211 313 340t479 129q124 0 222 -34l-136 -269q-74 19 -135 19q-251 0 -405 -185h403l-90 -227h-434l-17 -70q0 -3 -3 -20t-3 -25h400l-84 -223h-281q29 -54 76.5 -93t99.5 -57.5t94 -26t78 -7.5 q81 0 160 26l43 -276q-108 -31 -252 -31q-286 0 -447.5 121t-191.5 344h-160z" />
<glyph unicode="&#x2122;" horiz-adv-x="1689" d="M647 1243l-74 -418h-217l74 418h-192l32 189h604l-32 -189h-195zM1161 1432l123 -189l186 189h216l-107 -609h-215l33 185l37 145q-30 -36 -94.5 -104t-88.5 -95h-39l-110 199l-15 -145l-32 -185h-213l106 609h213z" />
<glyph unicode="&#x25fc;" horiz-adv-x="1013" d="M0 1014h1014v-1014h-1014v1014z" />
<glyph unicode="&#xfb01;" horiz-adv-x="1335" d="M985 1417l-127 -227q-45 22 -84 22q-60 0 -106.5 -40.5t-59.5 -118.5l-10 -60h250l-45 -256h-250l-129 -737h-295l129 737h-182l45 256h182l10 60q14 85 50 155t84.5 116.5t108 78.5t120 46.5t121.5 14.5q94 0 188 -47zM989 1014h295l-178 -1014h-295zM1012 1251 q0 92 63 143.5t144 51.5q57 0 96 -37t39 -100q0 -90 -62 -142.5t-139 -52.5q-59 0 -100 36.5t-41 100.5z" />
<glyph unicode="&#xfb02;" horiz-adv-x="1341" d="M985 1419l-127 -227q-39 20 -84 20q-60 0 -106.5 -40.5t-59.5 -118.5l-10 -60h236l-46 -256h-235l-129 -737h-295l129 737h-182l45 256h182l10 60q14 85 50 155t84.5 116.5t108 78.5t120 46.5t121.5 14.5q102 0 188 -45zM1063 1434h295l-252 -1434h-295z" />
</font>
</defs>
</svg>
