<?xml version="1.0" standalone="no"?>
<!DOCTYPE svg PUBLIC "-//W3C//DTD SVG 1.1//EN" "http://www.w3.org/Graphics/SVG/1.1/DTD/svg11.dtd" >
<svg xmlns="http://www.w3.org/2000/svg" xmlns:xlink="http://www.w3.org/1999/xlink" version="1.1">
<metadata></metadata>
<defs>
<font id="nexabold" horiz-adv-x="1302" >
<font-face units-per-em="2048" ascent="1434" descent="-614" />
<missing-glyph horiz-adv-x="509" />
<glyph horiz-adv-x="0" />
<glyph horiz-adv-x="682" />
<glyph unicode=" "  horiz-adv-x="509" />
<glyph unicode="&#x09;" horiz-adv-x="509" />
<glyph unicode="&#xa0;" horiz-adv-x="509" />
<glyph unicode="!" horiz-adv-x="557" d="M168 1438h221v-1080h-221v1080zM141 125q0 37 15 65.5t39 43.5t52.5 22t57.5 0t53 -22t39 -43.5t15 -65.5t-15 -65.5t-39 -43.5t-53 -22t-57.5 0t-52.5 22t-39 43.5t-15 65.5z" />
<glyph unicode="&#x22;" horiz-adv-x="827" d="M143 1432h195v-543h-195v543zM489 1432h195v-543h-195v543z" />
<glyph unicode="#" horiz-adv-x="1398" d="M516 1434h229l-77 -318h270l80 318h227l-78 -318h156v-196h-205l-110 -424h170v-201h-215l-72 -295h-229l71 295h-272l-72 -295h-227l71 295h-157v201h207l108 426h-170v194h217zM905 934h-297l-114 -451h297z" />
<glyph unicode="$" horiz-adv-x="1392" d="M1247 1217l-184 -99q-43 74 -144 118t-212 44q-67 0 -128 -13t-112.5 -39t-82 -70.5t-30.5 -102.5q0 -31 11 -56.5t27 -43.5t45 -33t55.5 -25t69 -19t73 -14t80.5 -12q56 -8 98.5 -15.5t95.5 -19.5t93 -25t85 -32.5t77 -42.5t63 -54t50 -67.5t30.5 -83t11.5 -100.5 q0 -100 -41.5 -181.5t-112 -134t-158 -83t-184.5 -36.5v-204h-217v196q-81 6 -158.5 27.5t-151 59t-132.5 97.5t-92 136l194 102q45 -99 171.5 -158t262.5 -59q58 0 110 6.5t102.5 23.5t87 43.5t59 68.5t22.5 96q0 45 -21.5 80.5t-56 59.5t-87.5 42.5t-105 29t-119 19.5 q-88 12 -142 22t-129 29.5t-120.5 47.5t-90 69.5t-65 102.5t-20.5 139q0 97 41 174t111.5 124.5t152.5 75.5t176 39v185h219v-185q148 -19 251 -73.5t171 -175.5z" />
<glyph unicode="%" horiz-adv-x="1521" d="M395 1452q77 0 140 -27t101.5 -70.5t59.5 -99.5t21 -114.5t-20.5 -114.5t-59.5 -99.5t-101.5 -70.5t-140.5 -27q-77 0 -140 27t-101.5 70.5t-59 99.5t-20.5 114.5t20.5 114.5t59 99.5t101.5 70.5t140 27zM1126 1438h203l-926 -1438h-204zM393 1300q-44 0 -78.5 -17.5 t-52 -45.5t-26 -61.5t0 -67.5t26.5 -62t53.5 -45.5t80.5 -17.5q44 0 78.5 17.5t52 45.5t25.5 62t-1 67.5t-27.5 61.5t-53 45.5t-78.5 17.5zM1126 608q77 0 140 -26.5t101.5 -70.5t59.5 -100t21 -114t-20.5 -114t-59.5 -100t-101.5 -70.5t-140.5 -26.5q-77 0 -140 26.5 t-101.5 70.5t-59 100t-20.5 114t20.5 114t59 100t101.5 70.5t140 26.5zM1124 457q-44 0 -78.5 -17.5t-52 -45.5t-26 -62t0 -68t26.5 -62t53.5 -45.5t80.5 -17.5q61 0 102.5 33t50.5 79.5t-1.5 93t-52.5 79.5t-103 33z" />
<glyph unicode="&#x26;" horiz-adv-x="1439" d="M987 641h-332q-153 0 -237 -67.5t-84 -153.5q0 -114 92 -174t238 -60q37 0 78 6.5t85.5 23.5t79.5 41t57.5 63.5t22.5 87.5v233zM1202 641v-233q0 -85 34 -138t107 -53v-221q-92 -5 -163.5 37.5t-98.5 148.5q-65 -101 -175 -153t-253 -52q-113 0 -210.5 28.5t-172.5 83 t-118 140t-43 193.5q0 100 68 189.5t169 121.5q-94 37 -147.5 120.5t-53.5 180.5q0 103 44 185t119 131.5t168.5 75.5t197.5 26q77 0 146 -11.5t136.5 -39.5t116.5 -71.5t79 -113t30 -157.5h-215q0 198 -299 198q-81 0 -141 -20t-93.5 -53t-49 -70.5t-15.5 -79.5 q0 -58 30 -101.5t77.5 -66t95.5 -33t96 -10.5h655v-182h-121z" />
<glyph unicode="'" horiz-adv-x="475" d="M141 1434h193v-543h-193v543z" />
<glyph unicode="(" horiz-adv-x="708" d="M557 1563l107 -146q-176 -133 -267.5 -333t-93.5 -429q0 -238 90 -432t271 -332l-115 -157q-221 147 -340.5 388t-124.5 505q-3 181 47 352.5t159 325.5t267 258z" />
<glyph unicode=")" horiz-adv-x="706" d="M43 1436l109 145q157 -104 266 -258.5t158.5 -325t46.5 -350.5q-3 -174 -53.5 -338t-156 -312t-255.5 -245l-111 160q359 277 356 762q0 228 -92 428t-268 334z" />
<glyph unicode="*" horiz-adv-x="815" d="M657 981l-133 -98l-116 172l-119 -172l-133 98l131 156l-187 41l50 161l182 -67l-8 186h165l-16 -188l195 69l45 -161l-191 -41z" />
<glyph unicode="+" horiz-adv-x="1026" d="M90 807h316v315h210v-315h318v-197h-318v-319h-210v319h-316v197z" />
<glyph unicode="," horiz-adv-x="503" d="M381 94q0 -10 -1.5 -19t-8.5 -30t-15.5 -45t-27.5 -79.5t-39 -117.5h-127l45 195q-39 8 -62.5 34t-23.5 68q0 45 27 76t65 38.5t76 0t65 -40t27 -80.5z" />
<glyph unicode="-" horiz-adv-x="1011" d="M133 498v190h746v-190h-746z" />
<glyph unicode="." horiz-adv-x="497" d="M119 113q0 61 40.5 95.5t89.5 34.5t89.5 -34.5t40.5 -95.5q0 -50 -27 -83.5t-65 -41.5t-76 0t-65 41.5t-27 83.5z" />
<glyph unicode="/" horiz-adv-x="1013" d="M754 1565h209l-705 -1733h-207z" />
<glyph unicode="0" horiz-adv-x="1433" d="M346 842v-250q0 -98 31.5 -178t84.5 -129.5t118.5 -76t136.5 -26.5t136.5 26.5t118 76t84 129.5t31.5 178v250q0 97 -31.5 175.5t-84.5 127t-118.5 74.5t-137.5 26q-71 0 -136 -25.5t-117.5 -74t-84 -127t-31.5 -176.5zM117 592v250q0 121 33.5 224t91 175t134.5 123 t163 75.5t178 24.5q115 0 220.5 -39.5t191 -114.5t137 -196.5t51.5 -271.5v-250q0 -150 -51.5 -271.5t-137 -196.5t-191 -115t-220.5 -40t-221 40t-191.5 115t-136.5 196.5t-51 271.5z" />
<glyph unicode="1" horiz-adv-x="890" d="M104 0v190h258v963l-245 -70v201l473 150v-1244h250v-190h-736z" />
<glyph unicode="2" horiz-adv-x="1382" d="M354 1026h-229q7 95 44 170t93 122t131.5 78t153 43.5t162.5 12.5q84 0 161 -13.5t150 -45.5t126 -80.5t85.5 -124.5t32.5 -172q0 -100 -32 -177t-84.5 -125t-127.5 -78t-153.5 -42t-170.5 -12q-48 0 -92 -5t-94 -19.5t-86 -37.5t-60 -64t-24 -94v-147h924v-215h-1145 v362q0 95 33.5 169.5t88 121t131 77t155.5 42.5t167 12q55 0 109 10t110 33.5t90.5 71t34.5 113.5q0 64 -26.5 111.5t-73.5 74t-103.5 40t-125.5 15.5q-66 0 -125.5 -12.5t-111.5 -38t-84 -71t-34 -105.5z" />
<glyph unicode="3" horiz-adv-x="1380" d="M692 641h-227v188h213q142 0 238 52.5t96 150.5q0 39 -17.5 75.5t-54 69.5t-103 52.5t-153.5 19.5q-58 0 -112.5 -10t-106 -32t-82.5 -64t-31 -99h-227q0 89 34 160.5t89 117t129.5 76t151 43.5t157.5 13q87 0 167.5 -16.5t151 -51.5t122.5 -84t82 -118.5t30 -151.5 q0 -105 -60.5 -186.5t-162.5 -110.5q125 -35 190.5 -116.5t65.5 -196.5q0 -93 -33.5 -168.5t-90 -125.5t-133 -84t-160.5 -49t-175 -15q-84 0 -163 13t-156 44.5t-134 79t-92 122t-35 167.5h232q0 -49 24 -88.5t60.5 -63.5t85 -40t93 -22t87.5 -6q92 0 170 25t129 79.5 t51 129.5q0 42 -16 78.5t-52.5 70t-106 53t-165.5 19.5z" />
<glyph unicode="4" horiz-adv-x="1355" d="M831 1432h265v-934h170v-213h-170v-285h-228v285h-794l-29 207zM301 498h567v667z" />
<glyph unicode="5" horiz-adv-x="1341" d="M1171 1432v-215h-804v-304h323q166 0 290.5 -48.5t197.5 -153t73 -254.5q0 -147 -76 -255.5t-201.5 -162t-283.5 -53.5q-94 0 -175.5 13t-157 44.5t-129 80.5t-85.5 125t-32 173h229q0 -52 22.5 -92t57.5 -64t82.5 -39t92.5 -20.5t93 -5.5q90 0 164 27t122 86.5t48 142.5 q0 119 -91.5 181t-240.5 62h-547v732h1028z" />
<glyph unicode="6" horiz-adv-x="1419" d="M369 1010v-260q53 81 155.5 122t208.5 41q89 0 170.5 -15t158 -50.5t132.5 -88t89.5 -133t33.5 -180.5q0 -93 -33.5 -171t-90 -131.5t-132 -91t-159 -55t-171.5 -17.5q-89 0 -172.5 17.5t-160 55.5t-133.5 92t-90.5 133t-33.5 173v557q0 110 50 198t133 142t185.5 82 t213.5 28q117 0 217.5 -24t180.5 -72t126.5 -127.5t48.5 -183.5h-225q-3 66 -52.5 114.5t-125 71.5t-164.5 23q-92 0 -171 -25t-134 -83.5t-55 -141.5zM731 186q69 0 131 15t113.5 45t81.5 81.5t30 118.5q0 126 -102.5 196.5t-251.5 70.5q-97 0 -177.5 -29t-132.5 -91 t-52 -147q0 -86 52.5 -146.5t132 -87t175.5 -26.5z" />
<glyph unicode="7" horiz-adv-x="1150" d="M451 0h-265l633 1214h-756v220h1051l14 -131z" />
<glyph unicode="8" horiz-adv-x="1439" d="M719 649q-66 0 -129.5 -13.5t-119.5 -40t-90 -73.5t-34 -106q0 -104 107.5 -171t265.5 -67q159 0 266 65t107 173q0 60 -33.5 106t-88.5 73t-119 40.5t-132 13.5zM106 418q2 103 67.5 192t178.5 129q-101 48 -155 123t-54 172q0 105 48 188.5t129 134t182.5 77 t214.5 26.5q90 0 174 -16t158.5 -50.5t130 -83.5t88 -120t32.5 -156q0 -92 -57 -168.5t-160 -117.5q112 -40 180 -134t68 -196q2 -95 -31 -172.5t-90.5 -128.5t-137 -85.5t-168 -49.5t-187.5 -15q-95 0 -182 15t-167 49t-138 85t-92 128.5t-32 173.5zM377 1040 q3 -71 55 -123t126.5 -75t160.5 -23q87 0 162.5 23t127.5 75t52 123q3 70 -46.5 123.5t-128 79t-169.5 25.5q-148 0 -244 -64t-96 -164z" />
<glyph unicode="9" horiz-adv-x="1421" d="M1055 428v260q-55 -81 -158 -123.5t-209 -42.5q-89 0 -170.5 15t-158 50.5t-132.5 88.5t-89.5 134t-33.5 181q0 93 33.5 171t90 131.5t132 91.5t159 55.5t171.5 17.5t172 -18t160 -56.5t133 -92.5t91 -132.5t34 -171.5v-557q0 -110 -49.5 -198t-132.5 -142t-185 -82 t-213 -28q-118 0 -219.5 24t-183.5 71.5t-130 127.5t-50 184h231q0 -65 52.5 -114t130.5 -72t167 -23q58 0 119.5 16.5t115 46.5t88 79t34.5 108zM690 1251q-70 0 -132 -15t-114 -45t-82 -81.5t-30 -118.5q0 -86 51 -148t130 -90t175 -28q150 0 256.5 70t106.5 196 q0 86 -54 146.5t-133.5 87t-173.5 26.5z" />
<glyph unicode=":" horiz-adv-x="524" d="M133 113q0 48 26.5 81.5t64.5 41t76 0t64.5 -41t26.5 -81.5t-26.5 -81.5t-64.5 -41t-76 0t-64.5 41t-26.5 81.5zM133 711q0 49 26.5 82.5t64.5 41.5t76 0t64.5 -41.5t26.5 -82.5q0 -48 -26.5 -81.5t-64.5 -41t-76 0t-64.5 41t-26.5 81.5z" />
<glyph unicode=";" horiz-adv-x="536" d="M141 711q0 49 26.5 82.5t64.5 41.5t76 0t64.5 -41.5t26.5 -82.5q0 -48 -26.5 -81.5t-64.5 -41t-76 0t-64.5 41t-26.5 81.5zM395 94q0 -7 -0.5 -13.5t-3.5 -17.5t-6.5 -22t-11.5 -34t-16 -47.5t-22.5 -67.5t-29.5 -89h-129l45 195q-38 8 -61 34.5t-23 67.5q0 45 26.5 76 t64.5 38.5t76 0t64.5 -40t26.5 -80.5z" />
<glyph unicode="&#x3c;" horiz-adv-x="794" d="M336 645l342 -319l-137 -148l-463 447v43l463 444l135 -145z" />
<glyph unicode="=" horiz-adv-x="1153" d="M143 317v195h867v-195h-867zM143 766v197h867v-197h-867z" />
<glyph unicode="&#x3e;" horiz-adv-x="794" d="M115 315l344 330l-342 330l137 137l461 -444v-43l-461 -447z" />
<glyph unicode="?" horiz-adv-x="1241" d="M422 133q0 39 16 69.5t41 46.5t56 23.5t61.5 0t55.5 -23.5t41 -46.5t16 -69.5q0 -54 -29.5 -90.5t-71.5 -45t-84.5 0t-72 45t-29.5 90.5zM293 1012h-223q0 89 30 162t81 123t121.5 84t149 49.5t164.5 15.5q88 0 167 -14.5t150 -47.5t123 -82t81.5 -122.5t27.5 -163.5 q0 -70 -19.5 -126t-48 -91.5t-71 -66t-78 -47t-81 -37t-68.5 -34.5q-71 -34 -96 -82t-25 -151l-227 2q0 101 17.5 173.5t54 118.5t76.5 72.5t101 51.5q14 6 46 19.5t48 21t41.5 21.5t39 27.5t28 32.5t21 43.5t6.5 53.5q0 66 -28 113t-77 70.5t-100.5 33.5t-112.5 10 q-57 0 -111.5 -14t-102 -40.5t-76.5 -73t-29 -105.5z" />
<glyph unicode="@" horiz-adv-x="1871" d="M942 1180q-133 0 -252.5 -45t-210 -127t-143.5 -206t-53 -272q0 -132 36 -239t97.5 -178.5t146 -119.5t177 -69.5t194.5 -21.5q170 0 297 75l84 -143q-170 -102 -385 -102q-133 0 -255 31t-228 96t-184 157.5t-122.5 224.5t-44.5 289q0 189 67.5 346t183.5 261 t269.5 161.5t325.5 57.5q147 0 275 -32t233.5 -98.5t181 -162t117 -227.5t41.5 -291q0 -239 -97.5 -376.5t-283.5 -137.5q-62 0 -108 46t-46 132q-43 -89 -137.5 -139t-185.5 -50q-146 0 -265.5 65t-188 181t-68.5 260q0 147 70 265t188.5 182.5t261.5 64.5q94 0 186 -50.5 t131 -125.5l13 123l165 -20v-717q0 -49 33 -49q52 0 87.5 50t50 125.5t14.5 170.5q0 635 -668 635zM934 850q-145 0 -232.5 -93.5t-87.5 -228.5q0 -131 87 -225t233 -94q101 0 174 46.5t107 119.5t34 162q0 133 -81.5 223t-233.5 90z" />
<glyph unicode="A" horiz-adv-x="1572" d="M1311 0l-137 301h-777l-135 -301h-244l644 1434h249l643 -1434h-243zM1090 510l-304 682l-303 -682h607z" />
<glyph unicode="B" horiz-adv-x="1466" d="M408 635v-422h430q52 0 101 9.5t96.5 31t76.5 62.5t29 96q0 72 -49 125t-115.5 75.5t-136.5 22.5h-432zM408 1227v-387h432q128 0 193 46.5t65 133.5q0 82 -69.5 144.5t-190.5 62.5h-430zM180 1434h658q104 0 191 -24t154 -72.5t104.5 -128.5t37.5 -185 q0 -96 -49.5 -170.5t-149.5 -114.5q81 -23 138.5 -83t81.5 -123.5t24 -122.5q0 -91 -28.5 -162.5t-76.5 -117.5t-117 -75.5t-145 -42t-165 -12.5h-658v1434z" />
<glyph unicode="C" horiz-adv-x="1439" d="M1229 342l157 -158q-213 -213 -538 -213q-151 0 -277 40.5t-213.5 110t-148 163.5t-89 200.5t-28.5 221.5t28.5 223t90 204t149 168t213 114t275.5 42q307 0 524 -217l-153 -147q-153 147 -371 147q-107 0 -195.5 -30t-149.5 -81t-103 -119.5t-61.5 -144.5t-19.5 -157 q0 -101 31.5 -192.5t93.5 -166.5t166.5 -119.5t237.5 -44.5q102 0 204.5 41t176.5 115z" />
<glyph unicode="D" horiz-adv-x="1536" d="M180 1434h543q142 0 261.5 -39.5t202 -106.5t140.5 -158t85.5 -192t29.5 -209q2 -111 -23.5 -215t-82.5 -198t-140 -164t-204.5 -111t-268.5 -41h-543v1434zM408 1214v-993h315q102 0 186 29t140.5 78t95 115t55 138.5t14.5 149.5q-2 93 -32.5 177t-88.5 154t-153.5 111 t-216.5 41h-315z" />
<glyph unicode="E" horiz-adv-x="1353" d="M1239 225v-225h-1059v1434h1053v-224h-823v-387h790v-213h-790v-385h829z" />
<glyph unicode="F" horiz-adv-x="1282" d="M410 0h-230v1432h1014v-224h-784v-436h745v-213h-745v-559z" />
<glyph unicode="G" horiz-adv-x="1521" d="M1376 1243l-143 -147q-76 73 -180 113t-207 40q-124 0 -225 -43t-167 -117t-101.5 -173.5t-35.5 -213.5q0 -81 19 -154.5t60.5 -140t102 -115.5t149.5 -77.5t198 -28.5q198 0 350 127v291h-399v205h612v-588q-113 -123 -249.5 -186.5t-313.5 -63.5q-153 0 -279 39.5 t-213 107.5t-147 161.5t-87.5 199.5t-27.5 223q0 154 50 290.5t143 241t238 165.5t323 61q147 0 284.5 -54.5t245.5 -162.5z" />
<glyph unicode="H" horiz-adv-x="1574" d="M1395 0h-228v596h-757v-596h-230v1434h230v-625h757v625h228v-1434z" />
<glyph unicode="I" horiz-adv-x="587" d="M408 0h-228v1434h228v-1434z" />
<glyph unicode="J" horiz-adv-x="1443" d="M594 1434h690v-840q0 -279 -166.5 -450t-447.5 -171q-179 0 -316.5 71t-217 210t-79.5 328h226q0 -191 99 -292.5t288 -101.5q184 0 284.5 111t100.5 295v627h-461v213z" />
<glyph unicode="K" horiz-adv-x="1327" d="M1278 1434v-9l-657 -684l714 -727v-14h-286l-639 653v-653h-230v1434h230v-619l583 619h285z" />
<glyph unicode="L" horiz-adv-x="1202" d="M180 1434h230v-1221h755v-213h-985v1434z" />
<glyph unicode="M" horiz-adv-x="1837" d="M1427 -2v1100l-487 -678h-49l-481 678v-1100h-230v1434h266l474 -672l471 672h266v-1434h-230z" />
<glyph unicode="N" horiz-adv-x="1579" d="M356 1434l813 -1020v1020h230v-1434h-174l-813 1012v-1012h-232v1434h176z" />
<glyph unicode="O" horiz-adv-x="1650" d="M829 1460q143 0 263.5 -41t205.5 -111.5t144.5 -166t88 -204t28.5 -226.5t-28 -226t-87.5 -202.5t-144.5 -164t-207 -109.5t-267 -40t-267 41t-207 111t-144 164.5t-87 201.5t-28 222q0 216 93.5 387t262 267.5t381.5 96.5zM319 707q2 -79 20.5 -152.5t58 -142.5t97 -120 t142.5 -81.5t188 -30.5q129 0 228.5 43.5t158.5 118.5t89 167.5t30 197.5q0 81 -18 157.5t-57.5 146.5t-97 122t-142.5 84t-187 34q-243 0 -376.5 -150.5t-133.5 -393.5z" />
<glyph unicode="P" horiz-adv-x="1415" d="M410 1225v-574h434q69 0 124 24.5t89 65t52 92t18 105.5t-18.5 105.5t-52.5 92t-89 65t-123 24.5h-434zM844 440h-434v-440h-230v1434q110 0 332 1t332 1q124 0 224 -43t161.5 -113t95 -159.5t34 -182.5t-33 -182.5t-95 -159.5t-162 -113t-224.5 -43z" />
<glyph unicode="Q" horiz-adv-x="1650" d="M825 1460q146 0 267 -40.5t205 -110.5t142.5 -164t86.5 -199t30 -219q3 -273 -141 -473l172 -170l-160 -162l-176 172q-171 -121 -426 -121q-147 0 -270 41t-208 111.5t-143.5 166t-86 202.5t-27.5 223q0 115 28 222t87.5 202t145 166t207.5 112t267 41zM825 1251 q-124 0 -224.5 -46t-161.5 -122.5t-92.5 -171.5t-29.5 -198q0 -100 32.5 -193t94 -168.5t160.5 -120.5t221 -45q101 0 185.5 31t143.5 84t99.5 123.5t59 148.5t16.5 160q-2 100 -32.5 189.5t-89 164.5t-157 119.5t-225.5 44.5z" />
<glyph unicode="R" horiz-adv-x="1476" d="M1393 41l24 -41h-268l-436 496h-303v-496h-230v1436q112 0 334 -1t334 -1q120 0 218 -39t160 -105t95 -149.5t33 -175.5q0 -63 -13 -121t-42.5 -113t-74 -97.5t-111 -73.5t-148.5 -42zM848 1225h-438v-520h436q134 0 204 73t70 183q0 50 -16.5 96t-48.5 84t-85.5 61 t-121.5 23z" />
<glyph unicode="S" horiz-adv-x="1351" d="M1210 1221l-174 -117q-51 73 -146 115.5t-208 44.5q-146 0 -239 -56t-93 -149q0 -40 19 -72t48.5 -52.5t77.5 -36.5t93.5 -25.5t109.5 -18.5q70 -10 125.5 -21t117.5 -29.5t108.5 -41t90.5 -56t72 -74.5t45 -96.5t17 -121.5q0 -116 -50 -204t-136 -139t-188.5 -75.5 t-219.5 -24.5q-217 0 -369.5 75.5t-247.5 250.5l173 115q38 -63 89.5 -110t110.5 -73.5t120 -39.5t126 -13q54 0 104 7t97.5 24.5t82.5 44t56.5 68t21.5 94.5t-27.5 93.5t-80 67t-114.5 43t-144 27.5q-68 9 -121 19t-113 27t-104.5 38t-87 53t-69.5 71t-43.5 92.5 t-16.5 117.5q2 80 35 147t87 113t125 78t148.5 46.5t157.5 14.5q383 0 534 -241z" />
<glyph unicode="T" horiz-adv-x="1241" d="M506 0v1227h-471v207h1171v-207h-469v-1227h-231z" />
<glyph unicode="U" horiz-adv-x="1540" d="M1151 1432h227v-840q0 -154 -48.5 -275.5t-134 -197.5t-198 -114t-243.5 -34q-121 2 -227 43t-188 116.5t-129.5 194.5t-47.5 267v840h227v-840q0 -189 100.5 -297t264.5 -113q176 -8 286.5 100.5t110.5 309.5v840z" />
<glyph unicode="V" horiz-adv-x="1476" d="M1452 1434l-594 -1440h-240l-595 1440h258l456 -1166l459 1166h256z" />
<glyph unicode="W" horiz-adv-x="2199" d="M2163 1434l-512 -1436h-203l-191 506l-157 481l-158 -483l-188 -504h-201l-520 1436h256l364 -1104l371 1104h147l379 -1104l357 1104h256z" />
<glyph unicode="X" horiz-adv-x="1337" d="M670 879l377 555h251v-11l-485 -696l506 -721v-6h-260l-389 567l-391 -567h-261v6l504 721l-483 696v11h252z" />
<glyph unicode="Y" horiz-adv-x="1404" d="M305 1434l395 -633l408 633h276v-11l-569 -835v-588h-229v588l-553 835v11h272z" />
<glyph unicode="Z" horiz-adv-x="1247" d="M119 1223v211h1046v-105l-788 -1110h788v-219h-1112v129l774 1094h-708z" />
<glyph unicode="[" horiz-adv-x="698" d="M627 -360h-463v1814h463v-190h-248v-1432h248v-192z" />
<glyph unicode="\" horiz-adv-x="1028" d="M51 1565h223l703 -1733h-221z" />
<glyph unicode="]" horiz-adv-x="700" d="M537 -358h-463v192h248v1432h-248v190h463v-1814z" />
<glyph unicode="^" horiz-adv-x="1275" d="M86 707v10l473 719h143l486 -717l-2 -12h-232l-323 495l-324 -495h-221z" />
<glyph unicode="_" horiz-adv-x="1230" d="M133 -207v189h965v-189h-965z" />
<glyph unicode="`" horiz-adv-x="479" d="M4 1430v8h254l152 -277v-10h-191z" />
<glyph unicode="a" d="M948 850l6 160h205v-1010h-201l-10 164q-46 -92 -146 -141.5t-202 -49.5q-149 0 -265 60.5t-184.5 182.5t-68.5 290q0 164 71 285t188 181t263 60q110 0 203.5 -48.5t140.5 -133.5zM621 840q-139 0 -233.5 -92t-94.5 -242q0 -151 94.5 -243.5t233.5 -92.5q79 0 142.5 29 t103 76t60.5 107t21 123t-21 123t-60.5 107t-103 76t-142.5 29z" />
<glyph unicode="b" d="M690 834q-135 0 -229 -91.5t-94 -236.5q0 -146 93 -238t230 -92q135 0 227.5 90.5t92.5 239.5t-92.5 238.5t-227.5 89.5zM143 1432h211v-580q46 85 149.5 132.5t205.5 47.5q226 0 369 -138t143 -388q0 -245 -145 -385.5t-371 -140.5q-109 0 -201.5 44t-149.5 136 l-12 -160h-199v1432z" />
<glyph unicode="c" horiz-adv-x="1042" d="M854 270l143 -141q-85 -83 -177.5 -120.5t-205.5 -37.5q-110 0 -206 34.5t-169 99.5t-115 167t-42 230t41.5 230t114.5 167t169 99t207 34q212 0 365 -149l-133 -138q-100 86 -230 86q-139 0 -231 -90.5t-92 -238.5q0 -154 92 -240t229 -86q149 0 240 94z" />
<glyph unicode="d" d="M612 834q-139 0 -229 -89t-90 -239t90.5 -240t228.5 -90q134 0 228 92t94 238q0 144 -94 236t-228 92zM948 1432h211v-1432h-198l-13 160q-57 -92 -150 -136t-200 -44q-226 0 -371 140.5t-145 385.5q0 250 142 388t370 138q101 0 204.5 -47.5t149.5 -132.5v580z" />
<glyph unicode="e" horiz-adv-x="1191" d="M1120 422h-819q14 -117 102.5 -185.5t227.5 -68.5q83 0 165.5 28.5t127.5 79.5l137 -133q-75 -84 -192.5 -128t-241.5 -44q-249 0 -397 146t-148 389q0 231 147.5 378.5t382.5 147.5q255 0 395.5 -156.5t112.5 -453.5zM305 600h613q-10 119 -89.5 181.5t-210.5 62.5 q-121 0 -205 -63t-108 -181z" />
<glyph unicode="f" horiz-adv-x="798" d="M463 0h-213v811h-193v186h193v74q0 183 101.5 283t262.5 100q129 0 248 -80l-82 -157q-83 53 -153 53q-75 0 -119.5 -50t-44.5 -149v-74h305v-186h-305v-811z" />
<glyph unicode="g" horiz-adv-x="1257" d="M901 963l111 135l153 -119l-121 -141q64 -75 93.5 -148.5t29.5 -165.5q0 -137 -67.5 -238.5t-200.5 -154.5q143 -50 204.5 -138t61.5 -192q0 -99 -46 -179t-123 -129.5t-172.5 -76t-198.5 -26.5q-249 0 -394.5 120t-138.5 328h211q-4 -112 92 -178t230 -66q82 0 153 21.5 t119.5 70t48.5 115.5q0 104 -86.5 161.5t-230.5 57.5q-249 0 -398 135t-149 369q0 122 47 221t125 160.5t174.5 94t200.5 32.5q71 0 147 -17.5t125 -51.5zM629 836q-89 0 -163 -33t-122.5 -105.5t-48.5 -173.5q0 -145 95.5 -227t238.5 -82q142 0 234.5 86.5t92.5 222.5 q0 144 -95 228t-232 84z" />
<glyph unicode="h" horiz-adv-x="1226" d="M143 1434h211v-566q117 164 328 164q209 0 312.5 -127t103.5 -352v-553h-211v551q0 140 -67.5 212.5t-186.5 72.5q-121 0 -200 -87.5t-79 -213.5v-535h-211v1434z" />
<glyph unicode="i" horiz-adv-x="497" d="M143 1014h211v-1014h-211v1014zM119 1307q0 62 38.5 95.5t92.5 33.5t92.5 -33.5t38.5 -95.5t-38.5 -96.5t-92.5 -34.5t-92.5 34.5t-38.5 96.5z" />
<glyph unicode="j" horiz-adv-x="497" d="M143 1014h211v-1133q0 -196 -75.5 -291.5t-243.5 -95.5q-115 0 -213 64l76 166q67 -31 118 -31q77 0 102 43.5t25 144.5v1133zM119 1311q0 62 38.5 95.5t92.5 33.5t92.5 -33.5t38.5 -95.5t-38.5 -96.5t-92.5 -34.5t-92.5 34.5t-38.5 96.5z" />
<glyph unicode="k" horiz-adv-x="1052" d="M143 1432h213v-836l375 414h256v-13l-436 -462l496 -521v-14h-259l-432 467v-467h-213v1432z" />
<glyph unicode="l" horiz-adv-x="514" d="M152 1432h210v-1432h-210v1432z" />
<glyph unicode="m" horiz-adv-x="1857" d="M1047 0h-213v559q0 117 -63.5 196t-172.5 79q-108 0 -176 -80t-68 -195v-559h-211v1010h197l14 -129q40 79 117 115t166 36q107 0 190.5 -48.5t126.5 -154.5q110 201 346 201q209 0 319 -122.5t110 -344.5v-563h-213v563q0 117 -59 192.5t-165 75.5q-110 0 -177.5 -78.5 t-67.5 -193.5v-559z" />
<glyph unicode="n" horiz-adv-x="1249" d="M1122 0h-213v541q0 133 -72 214t-200 81q-125 0 -204 -90t-79 -218v-528h-211v1012h193l12 -148q144 166 340 166q190 0 312 -129t122 -358v-543z" />
<glyph unicode="o" horiz-adv-x="1204" d="M600 1030q230 0 377 -151t147 -375q0 -229 -144 -378t-380 -149q-234 0 -377 149t-143 378q0 147 64 266.5t183.5 189.5t272.5 70zM600 836q-138 0 -223.5 -97t-85.5 -235q0 -139 85 -234.5t224 -95.5q142 0 226.5 95t84.5 235q0 137 -87.5 234.5t-223.5 97.5z" />
<glyph unicode="p" d="M690 178q139 0 229.5 92.5t90.5 233.5q0 144 -87.5 232.5t-232.5 88.5q-143 0 -230 -91.5t-87 -229.5q0 -137 89.5 -231.5t227.5 -94.5zM354 -469h-211v1479h199l12 -164q58 89 154 136.5t203 47.5q226 0 368 -148.5t142 -377.5q0 -235 -139 -383t-371 -148 q-106 0 -205 41t-152 129v-612z" />
<glyph unicode="q" horiz-adv-x="1304" d="M612 178q138 0 228 93.5t90 232.5q0 138 -87.5 229.5t-230.5 91.5q-145 0 -231 -88.5t-86 -232.5t88.5 -235t228.5 -91zM1161 -469h-211v612q-53 -87 -152 -128.5t-204 -41.5q-233 0 -372.5 148t-139.5 383q0 229 142.5 377.5t369.5 148.5q106 0 201 -47t153 -137l13 164 h200v-1479z" />
<glyph unicode="r" horiz-adv-x="901" d="M143 1010h197l14 -133q51 89 126.5 122t170.5 33q72 0 139 -23.5t111 -62.5l-96 -184q-40 32 -80 46.5t-98 14.5q-116 0 -194.5 -71.5t-78.5 -204.5v-547h-211v1010z" />
<glyph unicode="s" horiz-adv-x="1021" d="M907 901l-119 -139q-57 52 -121 73t-145 21q-100 2 -157.5 -30t-57.5 -91q1 -59 56.5 -88.5t162.5 -40.5q47 -4 83 -9t83 -15.5t81.5 -24.5t70 -38t58.5 -55t37.5 -76t14.5 -99q0 -142 -118 -231t-312 -89q-138 0 -253 41t-208 146l111 149q68 -74 162 -110.5t192 -38.5 q52 0 99 12.5t81.5 43.5t34.5 75q1 65 -56.5 96.5t-176.5 42.5q-62 5 -116 16t-110 34t-95.5 55t-65 83t-25.5 115q0 80 38.5 141t101.5 95.5t134 51.5t146 17q120 0 212.5 -30.5t176.5 -102.5z" />
<glyph unicode="t" horiz-adv-x="833" d="M256 1278l213 22v-292h295v-183h-297v-481q0 -166 145 -166q67 0 129 35l62 -180q-105 -45 -203 -45q-167 -5 -255.5 86t-88.5 270v481h-195v183h195v270z" />
<glyph unicode="u" horiz-adv-x="1247" d="M127 1006h211v-545q0 -132 71.5 -211.5t202.5 -79.5q123 0 202 88t79 217v531h211v-1008h-191l-12 141q-73 -86 -157 -125t-191 -39q-190 0 -308 129.5t-118 354.5v547z" />
<glyph unicode="v" horiz-adv-x="1163" d="M895 1012h231l-428 -1016h-231l-430 1016h233l136 -326l178 -469l159 428z" />
<glyph unicode="w" horiz-adv-x="1736" d="M778 1012h183l241 -795l250 795h236l-355 -1016h-246l-118 336l-99 352l-100 -352l-119 -336h-245l-357 1016h238l250 -795z" />
<glyph unicode="x" horiz-adv-x="1052" d="M526 649l224 361h256v-6l-340 -490l362 -508v-6h-254l-248 367l-247 -367h-254v6l362 508l-340 490v6h254z" />
<glyph unicode="y" horiz-adv-x="1142" d="M874 1010h236l-637 -1479h-233l209 483l-404 996h246l174 -478l100 -286l109 282z" />
<glyph unicode="z" horiz-adv-x="976" d="M96 1010h797v-99l-508 -704h512v-207h-836v86l523 731h-488v193z" />
<glyph unicode="{" horiz-adv-x="704" d="M627 -129v-166q-220 -37 -316 49t-96 293v272q0 37 -5 66.5t-19.5 59.5t-45.5 46.5t-77 16.5v160q46 0 77 16.5t45.5 46.5t19.5 59.5t5 67.5v283q0 396 412 323v-161q-108 25 -150.5 -13.5t-42.5 -156.5v-275q0 -110 -10 -147q-22 -84 -117 -118q-8 -2 -16 -5 q30 -9 53 -22.5t38 -26.5t25.5 -34.5t15.5 -36t7.5 -43t3 -43.5t0.5 -48v-15v-282q0 -115 38.5 -149t154.5 -17z" />
<glyph unicode="|" horiz-adv-x="540" d="M375 1516v-1706h-209v1706h209z" />
<glyph unicode="}" horiz-adv-x="704" d="M78 -303v166q116 -17 154 17t38 151v280v13q0 32 0.5 48.5t3 44t7.5 43t15.5 37t25.5 34.5t38.5 26.5t53.5 22.5q-35 11 -60.5 25t-41 35.5t-24.5 39t-13 49t-4.5 50t-0.5 57.5v14v274q0 118 -42 156.5t-150 13.5v164q411 73 411 -323v-285q0 -39 5 -68t19 -59.5 t45.5 -47t78.5 -16.5v-159q-47 0 -78.5 -16.5t-45.5 -47t-19 -59t-5 -66.5v-272q0 -208 -95.5 -293.5t-315.5 -48.5z" />
<glyph unicode="~" horiz-adv-x="1267" d="M985 752l158 -54q-48 -148 -152 -217t-246 -14q-38 13 -137 73t-147 66q-57 14 -107 -16t-80 -101l-145 58q46 137 140 196.5t208 38.5q60 -4 116.5 -32t111.5 -63.5t94 -47.5q125 -49 186 113z" />
<glyph unicode="&#xa1;" horiz-adv-x="528" d="M379 -459h-227v1077h227v-1077zM406 885q0 -67 -44.5 -104.5t-98 -37.5t-98 37.5t-44.5 104.5t44.5 104.5t98 37.5t98 -37.5t44.5 -104.5z" />
<glyph unicode="&#xa2;" horiz-adv-x="1101" d="M987 877l-117 -148q-46 40 -110 63t-123 23q-139 0 -231.5 -88t-92.5 -246q0 -150 94 -242t230 -92q61 0 131.5 32.5t118.5 80.5l133 -154q-123 -120 -293 -145v-145h-199v147q-194 39 -309 170t-115 348q0 208 113 342.5t311 173.5v144h199v-142q147 -24 260 -122z" />
<glyph unicode="&#xa3;" horiz-adv-x="1343" d="M457 997q0 -29 4 -63t8 -55t13 -64t12 -57h450v-193h-409q13 -94 -25.5 -197.5t-128.5 -160.5h854v-207h-1116v215q203 105 186 350h-186v193h149q-41 164 -41 235q0 218 139.5 339.5t374.5 121.5q84 0 154.5 -14t131 -46t103.5 -80t68.5 -118.5t28.5 -159.5h-205 q-7 113 -82 167t-199 54q-141 0 -212.5 -71.5t-71.5 -188.5z" />
<glyph unicode="&#xa4;" horiz-adv-x="1255" d="M627 408q112 0 175.5 72t63.5 171q0 101 -63.5 173.5t-175.5 72.5q-109 0 -174.5 -73.5t-65.5 -172.5q0 -98 65.5 -170.5t174.5 -72.5zM416 279l-121 -121l-160 157l121 119q-59 105 -57 218t63 214l-127 121l160 160l119 -121q94 49 215 49q119 0 211 -51l123 123 l157 -160l-119 -119q58 -104 58.5 -219t-58.5 -215l119 -119l-155 -155l-123 119q-92 -48 -215 -48q-113 0 -211 48z" />
<glyph unicode="&#xa5;" horiz-adv-x="1472" d="M297 264v168h317v111h-317v170h233l-469 710v11h267l401 -633l420 633h264v-11l-483 -710h231v-170h-317v-111h317v-168h-317v-264h-230v264h-317z" />
<glyph unicode="&#xa6;" horiz-adv-x="555" d="M387 698h-219v754h219v-754zM168 567h219v-751h-219v751z" />
<glyph unicode="&#xa7;" horiz-adv-x="1224" d="M111 160l139 143q129 -152 360 -149q107 0 189 35.5t86 97.5q3 36 -35 61.5t-98 37.5t-140 15q-74 2 -141.5 12.5t-132.5 34t-112 57t-74.5 86t-24.5 116.5q0 62 50 125.5t134 89.5q-88 22 -132 84t-42 137q3 71 37 127t85 90.5t118.5 57t132 31.5t131.5 9 q127 0 245.5 -36t190.5 -117l-139 -121q-64 51 -133.5 69.5t-169.5 20.5q-112 0 -193.5 -33t-81.5 -92q0 -32 24.5 -56.5t65.5 -38t83.5 -20.5t89.5 -10q59 -2 113.5 -8.5t114 -20t106.5 -37.5t84.5 -57t56 -83t12.5 -111q-4 -71 -54.5 -123.5t-129.5 -73.5 q89 -28 139 -92.5t45 -134.5q-3 -71 -39.5 -128.5t-90.5 -92.5t-123 -58.5t-132 -33t-123 -9.5q-153 0 -283.5 50t-207.5 149zM891 713q2 52 -53 89t-135.5 47t-161.5 3t-138 -44.5t-57 -94.5q-2 -51 53 -85.5t135.5 -42.5t161.5 0t138 42.5t57 85.5z" />
<glyph unicode="&#xa8;" horiz-adv-x="931" d="M109 1354q0 60 39.5 93.5t87 33.5t87 -33.5t39.5 -93.5q0 -48 -26 -81.5t-63 -41t-74.5 0t-63.5 41t-26 81.5zM600 1354q0 60 40 93.5t88 33.5t88 -33.5t40 -93.5q0 -48 -26.5 -81.5t-64 -41t-75 0t-64 41t-26.5 81.5z" />
<glyph unicode="&#xa9;" horiz-adv-x="1689" d="M850 1468q139 0 258.5 -38.5t207 -107t149.5 -162t93 -205t31 -234.5q0 -153 -49.5 -288t-141 -238t-233.5 -162.5t-315 -59.5q-139 0 -260 38.5t-210 108t-152.5 163t-95.5 205t-32 233.5q0 154 51 289t145 237t237 161.5t317 59.5zM881 326q-177 0 -294.5 107 t-117.5 288q0 180 118 289.5t294 109.5q165 0 290 -125l-116 -108q-74 71 -174 71q-103 0 -173.5 -65t-70.5 -172q0 -103 71.5 -167.5t172.5 -64.5q97 0 176 76l117 -112q-130 -127 -293 -127zM289 721q0 -121 39 -226.5t110 -183.5t177.5 -123t234.5 -45q129 0 234 45 t174 123.5t106 183.5t37 226t-37 226.5t-106 184t-174 123.5t-234 45q-128 0 -234.5 -45t-177.5 -123.5t-110 -184t-39 -226.5z" />
<glyph unicode="&#xaa;" horiz-adv-x="1009" d="M692 1335l2 99h164v-662h-162l-4 105q-34 -57 -98 -90t-129 -33q-150 0 -245 92.5t-95 257.5t96.5 254.5t247.5 89.5q69 0 130 -30t93 -83zM483 1294q-81 0 -133.5 -51t-52.5 -139q0 -86 53 -138.5t133 -52.5q59 0 102.5 28t63 70.5t19.5 92t-19.5 92t-63 70.5t-102.5 28 zM166 465v174h688v-174h-688z" />
<glyph unicode="&#xab;" horiz-adv-x="1021" d="M78 608l284 451h228v-2l-283 -449q57 -93 283 -454h-228zM426 608l285 451h225v-2l-281 -449l281 -454h-225z" />
<glyph unicode="&#xac;" horiz-adv-x="1081" d="M928 772v-450h-183v264h-602v186h785z" />
<glyph unicode="&#xad;" horiz-adv-x="1011" d="M133 498v190h746v-190h-746z" />
<glyph unicode="&#xae;" horiz-adv-x="1685" d="M842 1464q173 0 315 -59.5t234 -162t142 -237.5t50 -288t-50 -288t-142 -238t-234 -162.5t-315 -59.5t-314.5 59.5t-233.5 162.5t-142 238t-50 288t50 288t142 237.5t233.5 162t314.5 59.5zM291 717q0 -121 37.5 -226t106.5 -183.5t174 -123.5t233 -45q129 0 234 45 t174 123.5t106 183.5t37 226t-37 226.5t-106 184t-174 123.5t-234 45q-128 0 -233 -45t-174 -123.5t-106.5 -184t-37.5 -226.5zM1004 618l200 -241v-37h-186l-197 250h-96v-250h-172v760h356q68 0 124.5 -23.5t89 -62t51.5 -86t15 -97t-23 -93t-61.5 -76t-100.5 -44.5z M909 944h-184v-207h182q41 0 69 21.5t34.5 51.5t0.5 60.5t-33.5 52t-68.5 21.5z" />
<glyph unicode="&#xaf;" horiz-adv-x="872" d="M72 1257v181h710v-181h-710z" />
<glyph unicode="&#xb0;" horiz-adv-x="706" d="M352 1350q-57 0 -89.5 -36t-33 -80t32 -80t90.5 -36q45 0 76 24t38 58t0 68t-38 58t-76 24zM354 1481q80 0 139.5 -36.5t86.5 -91t27 -118.5t-26.5 -118.5t-86 -91t-140.5 -36.5q-83 0 -143 36.5t-86.5 91t-26 118.5t28 118.5t87 91t140.5 36.5z" />
<glyph unicode="&#xb1;" horiz-adv-x="1093" d="M137 668v198h307v312h203v-312h309v-198h-309v-312h-203v312h-307zM141 53v195h811v-195h-811z" />
<glyph unicode="&#xb2;" horiz-adv-x="749" d="M240 1358h-158q0 58 25 103.5t67 72t92 40t103 13.5q138 0 220.5 -56.5t82.5 -178.5q0 -67 -24 -113t-62 -67.5t-84 -33.5t-92 -18.5t-84 -15t-62 -30t-24 -58.5v-33h424v-156h-586v189q0 62 24 104.5t62 64t84.5 35t93 22t84.5 19.5t62 33.5t24 57.5q0 96 -141 96 q-128 0 -131 -90z" />
<glyph unicode="&#xb3;" horiz-adv-x="761" d="M377 1149h-115v125h107q68 0 103 18.5t36 71.5q0 31 -33 59.5t-104 28.5q-131 0 -148 -88h-141q0 58 25.5 102t68 69.5t93 38.5t104.5 13q74 0 138.5 -22.5t110.5 -75.5t46 -127q0 -51 -27.5 -93t-75.5 -59q57 -16 89 -60.5t32 -94.5q0 -53 -19 -95.5t-50 -69.5 t-73 -44.5t-85.5 -25t-89.5 -7.5q-55 0 -106 12.5t-96 38.5t-72 72.5t-27 107.5h165q17 -86 142 -86q57 0 100 22t43 71q0 41 -33 69.5t-108 28.5z" />
<glyph unicode="&#xb4;" horiz-adv-x="458" d="M420 1432v-9l-215 -272h-191v10l152 271h254z" />
<glyph unicode="&#xb5;" horiz-adv-x="1253" d="M1141 0h-205l-21 145q-34 -59 -91.5 -99t-123.5 -52.5t-130.5 -3t-119 49.5t-81.5 103v-592h-211v1463h223v-555q0 -149 104 -227q87 -65 197 -48q115 16 179 112q52 77 52 189v529h228v-1014z" />
<glyph unicode="&#xb6;" horiz-adv-x="1708" d="M786 1221v-1659h-227v805q-119 8 -214.5 57t-154.5 123.5t-90.5 165t-31.5 186.5q0 81 22 158t67 145.5t109 120t153.5 81.5t194.5 30h1018v-213h-196v-1659h-228v1659h-422z" />
<glyph unicode="&#xb7;" horiz-adv-x="536" d="M131 569q0 51 28.5 86.5t68.5 43.5t80.5 0t69 -43.5t28.5 -86.5t-28.5 -86t-69 -43.5t-80.5 0t-68.5 43.5t-28.5 86z" />
<glyph unicode="&#xb8;" horiz-adv-x="606" d="M61 -338l97 82q44 -67 139 -70q96 0 115 64q17 59 -45.5 88.5t-135.5 -6.5l-47 39l60 188h155l-30 -106q53 -2 93.5 -16.5t63.5 -37t37.5 -52t14.5 -61t-5 -63.5q-19 -89 -94.5 -136.5t-169.5 -45.5q-77 2 -144 36t-104 97z" />
<glyph unicode="&#xb9;" horiz-adv-x="544" d="M74 827v140h129v428l-111 -27v137l270 68v-606h132v-140h-420z" />
<glyph unicode="&#xba;" horiz-adv-x="972" d="M164 483v158h649v-158h-649zM485 754q-156 0 -256 92.5t-100 257.5q0 163 99.5 253.5t256.5 90.5q158 0 258.5 -91t100.5 -253q0 -165 -100.5 -257.5t-258.5 -92.5zM485 913q80 0 133.5 52.5t53.5 138.5q0 88 -53 139t-134 51q-80 0 -132 -51t-52 -139q0 -86 52 -138.5 t132 -52.5z" />
<glyph unicode="&#xbb;" horiz-adv-x="1019" d="M655 1063l285 -451l-285 -454h-225l281 454l-281 449v2h225zM313 1063l285 -451l-285 -454h-227l283 454l-283 449v2h227z" />
<glyph unicode="&#xbc;" horiz-adv-x="1585" d="M1202 745h209v-464h100v-142h-100v-139h-158v139h-393l-8 135zM1253 281v311l-231 -311h231zM469 -2h-188l784 1448h190zM96 690v139h127v428l-108 -24v137l268 68v-609h133v-139h-420z" />
<glyph unicode="&#xbd;" horiz-adv-x="1646" d="M1139 524h-160q0 77 44.5 131t107 76.5t135.5 22.5q137 0 220 -57t83 -179q0 -58 -18.5 -100t-48.5 -63.5t-68.5 -36.5t-78.5 -20t-78.5 -13t-68.5 -17t-48.5 -31t-18.5 -55v-39h415v-149h-581v188q0 62 24 104.5t62 64t84.5 35t93 22t84.5 19.5t62 33.5t24 57.5 q0 96 -139 96q-57 0 -94 -21.5t-37 -68.5zM465 -4h-189l783 1450h190zM92 692v139h127v429l-108 -27v137l268 68v-607h133v-139h-420z" />
<glyph unicode="&#xbe;" horiz-adv-x="1638" d="M1274 745h209v-464h86v-142h-86v-139h-158v139h-393l-8 135zM1325 281v311l-231 -311h231zM377 1036h-113v121h105q65 0 99.5 17t35.5 67q0 31 -32 59.5t-103 28.5q-130 0 -142 -86h-137q0 73 44 124t105.5 72t131.5 21q115 0 201.5 -57t86.5 -162q0 -50 -27 -91t-75 -54 q54 -16 85.5 -60.5t31.5 -91.5q0 -64 -27.5 -111t-73.5 -72.5t-97 -37.5t-107 -12q-54 0 -103.5 12t-93 37.5t-69 70t-25.5 103.5h160q17 -84 135 -84q56 0 98.5 21.5t42.5 68.5q0 40 -32.5 68t-104.5 28zM561 -8h-188l784 1454h191z" />
<glyph unicode="&#xbf;" horiz-adv-x="1230" d="M813 907q0 -38 -15.5 -68t-41 -45.5t-56 -23t-60.5 0t-55.5 23t-41 46t-15.5 69.5q0 38 15.5 68.5t41 46.5t56 23.5t60.5 0t55.5 -23t41 -46.5t15.5 -71zM1167 29q0 -89 -30 -162t-81.5 -122.5t-122 -83t-149.5 -49t-166 -15.5q-88 0 -166.5 14t-150 46.5t-123 81 t-81 122.5t-27.5 166q0 71 22 129t55 94t79.5 67t87 48.5t86.5 38.5t69 36q43 30 63.5 71t24.5 112v47q38 0 113.5 -1t113.5 -1q0 -103 -17 -176t-53 -120t-76 -74t-101 -52q-18 -9 -55 -25.5t-55.5 -26t-46 -27.5t-41 -36t-24 -46t-10.5 -62q0 -66 28.5 -112t77 -69.5 t99.5 -33t111 -9.5q78 0 145.5 23t116 77.5t51.5 131.5q40 0 116.5 -1t116.5 -1z" />
<glyph unicode="&#xc0;" horiz-adv-x="1572" d="M475 1864v8h254l152 -277v-10h-191zM1311 0l-137 301h-777l-135 -301h-244l644 1434h249l643 -1434h-243zM1090 510l-304 682l-303 -682h607z" />
<glyph unicode="&#xc1;" horiz-adv-x="1572" d="M1081 1872v-8l-215 -273h-190v11l151 270h254zM1311 0l-137 301h-777l-135 -301h-244l644 1434h249l643 -1434h-243zM1090 510l-304 682l-303 -682h607z" />
<glyph unicode="&#xc2;" horiz-adv-x="1572" d="M731 1870h123l301 -279v-12h-219l-143 123l-144 -123h-219v12zM1311 0l-137 301h-777l-135 -301h-244l644 1434h249l643 -1434h-243zM1090 510l-304 682l-303 -682h607z" />
<glyph unicode="&#xc3;" horiz-adv-x="1572" d="M590 1575l-125 67q31 92 92.5 138.5t149.5 27.5q26 -8 72 -30t67 -29q99 -34 127 53l135 -51q-10 -59 -36.5 -100t-60.5 -57.5t-73 -22t-74 5.5q-26 8 -72 30t-67 29q-93 32 -135 -61zM1311 0l-137 301h-777l-135 -301h-244l644 1434h249l643 -1434h-243zM1090 510 l-304 682l-303 -682h607z" />
<glyph unicode="&#xc4;" horiz-adv-x="1572" d="M412 1704q0 60 39.5 93.5t87.5 33.5t87.5 -33.5t39.5 -93.5q0 -48 -26 -81.5t-63.5 -41t-75 0t-63.5 41t-26 81.5zM903 1704q0 48 26.5 80.5t64 40.5t75 0t64 -40.5t26.5 -80.5t-26.5 -81.5t-64 -41t-75 0t-64 41t-26.5 81.5zM1311 0l-137 301h-777l-135 -301h-244 l644 1434h249l643 -1434h-243zM1090 510l-304 682l-303 -682h607z" />
<glyph unicode="&#xc5;" horiz-adv-x="1572" d="M915 1423h-260q-59 27 -93 79.5t-34 125.5q0 75 38 130t95.5 80.5t124.5 25.5q102 0 180 -63t78 -173q0 -72 -35 -125t-94 -80zM784 1739q-45 0 -76 -22.5t-38 -54.5t0 -63.5t38 -54t76 -22.5q58 0 90.5 34t32 74.5t-33 74.5t-89.5 34zM1311 0l-137 301h-777l-135 -301 h-244l644 1434h249l643 -1434h-243zM1090 510l-304 682l-303 -682h607z" />
<glyph unicode="&#xc6;" horiz-adv-x="1869" d="M1759 207v-207h-862v344h-473l-211 -344h-258l901 1434h893v-201h-643v-410h614v-200h-614v-416h653zM553 549h344v285l14 327h-2z" />
<glyph unicode="&#xc7;" horiz-adv-x="1441" d="M731 -12h156l-33 -113q85 -3 137.5 -39t67 -85.5t2.5 -104.5q-17 -69 -68.5 -113.5t-120.5 -58.5q-91 -21 -184.5 11t-140.5 112l96 81q26 -42 82.5 -59.5t107.5 -2.5t64 56q11 34 -14.5 64t-69.5 36.5t-96 -16.5l-47 37zM1229 342l157 -158q-213 -213 -538 -213 q-151 0 -277 40.5t-213.5 110t-148 163.5t-89 200.5t-28.5 221.5t28.5 223t90 204t149 168t213 114t275.5 42q307 0 524 -217l-153 -147q-153 147 -371 147q-107 0 -195.5 -30t-149.5 -81t-103 -119.5t-61.5 -144.5t-19.5 -157q0 -101 31.5 -192.5t93.5 -166.5t166.5 -119.5 t237.5 -44.5q102 0 204.5 41t176.5 115z" />
<glyph unicode="&#xc8;" horiz-adv-x="1353" d="M467 1858v8h254l151 -277v-10h-190zM1239 225v-225h-1059v1434h1053v-224h-823v-387h790v-213h-790v-385h829z" />
<glyph unicode="&#xc9;" horiz-adv-x="1353" d="M1010 1862v-9l-215 -272h-191v10l152 271h254zM1239 225v-225h-1059v1434h1053v-224h-823v-387h790v-213h-790v-385h829z" />
<glyph unicode="&#xca;" horiz-adv-x="1353" d="M668 1888h123l301 -278v-13h-220l-143 123l-143 -123h-219v13zM1239 225v-225h-1059v1434h1053v-224h-823v-387h790v-213h-790v-385h829z" />
<glyph unicode="&#xcb;" horiz-adv-x="1353" d="M356 1708q0 60 39.5 93.5t87.5 33.5t87.5 -33.5t39.5 -93.5q0 -48 -26 -81.5t-63.5 -41t-75 0t-63.5 41t-26 81.5zM848 1708q0 60 40 93.5t88 33.5t88 -33.5t40 -93.5q0 -48 -26.5 -81.5t-64 -41t-75 0t-64 41t-26.5 81.5zM1239 225v-225h-1059v1434h1053v-224h-823v-387 h790v-213h-790v-385h829z" />
<glyph unicode="&#xcc;" horiz-adv-x="587" d="M-4 1853v9h254l151 -277v-10h-190zM408 0h-228v1434h228v-1434z" />
<glyph unicode="&#xcd;" horiz-adv-x="587" d="M590 1847v-8l-215 -272h-191v10l152 270h254zM408 0h-228v1434h228v-1434z" />
<glyph unicode="&#xce;" horiz-adv-x="587" d="M238 1864h110l270 -277v-12h-196l-129 121l-127 -121h-199v12zM408 0h-228v1434h228v-1434z" />
<glyph unicode="&#xcf;" horiz-adv-x="587" d="M-37 1702q0 60 39.5 93.5t87.5 33.5t87.5 -33.5t39.5 -93.5q0 -48 -26 -81.5t-63.5 -41t-75 0t-63.5 41t-26 81.5zM383 1702q0 48 26.5 80.5t64 40.5t75 0t64 -40.5t26.5 -80.5t-26.5 -81.5t-64 -41t-75 0t-64 41t-26.5 81.5zM408 0h-228v1434h228v-1434z" />
<glyph unicode="&#xd0;" horiz-adv-x="1552" d="M37 616v193h676v-193h-676zM199 1434h542q142 0 261.5 -39.5t202 -106.5t140.5 -158t85.5 -192t29.5 -209q2 -111 -23.5 -215t-82.5 -198t-140 -164t-204.5 -111t-268.5 -41h-542v1434zM426 1214v-993h315q102 0 186 29t140.5 78t95 115t55.5 138.5t15 149.5 q-2 74 -21 142.5t-58.5 131t-95.5 108.5t-137.5 73.5t-179.5 27.5h-315z" />
<glyph unicode="&#xd1;" horiz-adv-x="1579" d="M594 1583l-125 68q31 92 92.5 138.5t149.5 27.5q26 -8 72 -30.5t67 -29.5q99 -34 127 53l135 -51q-10 -59 -36.5 -100t-60.5 -57.5t-73 -22t-74 5.5q-26 8 -72 30.5t-67 29.5q-92 31 -135 -62zM356 1434l813 -1020v1020h230v-1434h-174l-813 1012v-1012h-232v1434h176z " />
<glyph unicode="&#xd2;" horiz-adv-x="1650" d="M551 1874v8h254l151 -276v-11h-190zM829 1460q143 0 263.5 -41t205.5 -111.5t144.5 -166t88 -204t28.5 -226.5t-28 -226t-87.5 -202.5t-144.5 -164t-207 -109.5t-267 -40t-267 41t-207 111t-144 164.5t-87 201.5t-28 222q0 216 93.5 387t262 267.5t381.5 96.5zM319 707 q2 -79 20.5 -152.5t58 -142.5t97 -120t142.5 -81.5t188 -30.5q129 0 228.5 43.5t158.5 118.5t89 167.5t30 197.5q0 81 -18 157.5t-57.5 146.5t-97 122t-142.5 84t-187 34q-243 0 -376.5 -150.5t-133.5 -393.5z" />
<glyph unicode="&#xd3;" horiz-adv-x="1650" d="M1116 1876v-8l-215 -273h-190v11l151 270h254zM829 1460q143 0 263.5 -41t205.5 -111.5t144.5 -166t88 -204t28.5 -226.5t-28 -226t-87.5 -202.5t-144.5 -164t-207 -109.5t-267 -40t-267 41t-207 111t-144 164.5t-87 201.5t-28 222q0 216 93.5 387t262 267.5t381.5 96.5z M319 707q2 -79 20.5 -152.5t58 -142.5t97 -120t142.5 -81.5t188 -30.5q129 0 228.5 43.5t158.5 118.5t89 167.5t30 197.5q0 81 -18 157.5t-57.5 146.5t-97 122t-142.5 84t-187 34q-243 0 -376.5 -150.5t-133.5 -393.5z" />
<glyph unicode="&#xd4;" horiz-adv-x="1650" d="M768 1888h123l301 -278v-13h-219l-144 123l-143 -123h-219v13zM829 1460q143 0 263.5 -41t205.5 -111.5t144.5 -166t88 -204t28.5 -226.5t-28 -226t-87.5 -202.5t-144.5 -164t-207 -109.5t-267 -40t-267 41t-207 111t-144 164.5t-87 201.5t-28 222q0 216 93.5 387 t262 267.5t381.5 96.5zM319 707q2 -79 20.5 -152.5t58 -142.5t97 -120t142.5 -81.5t188 -30.5q129 0 228.5 43.5t158.5 118.5t89 167.5t30 197.5q0 81 -18 157.5t-57.5 146.5t-97 122t-142.5 84t-187 34q-243 0 -376.5 -150.5t-133.5 -393.5z" />
<glyph unicode="&#xd5;" horiz-adv-x="1650" d="M633 1595l-125 68q31 92 92.5 138.5t149.5 27.5q26 -8 72 -30.5t67 -29.5q99 -34 127 54l135 -51q-10 -59 -36.5 -100t-60.5 -57.5t-73 -22.5t-74 5q-26 8 -72 30.5t-67 29.5q-92 31 -135 -62zM829 1460q143 0 263.5 -41t205.5 -111.5t144.5 -166t88 -204t28.5 -226.5 t-28 -226t-87.5 -202.5t-144.5 -164t-207 -109.5t-267 -40t-267 41t-207 111t-144 164.5t-87 201.5t-28 222q0 216 93.5 387t262 267.5t381.5 96.5zM319 707q2 -79 20.5 -152.5t58 -142.5t97 -120t142.5 -81.5t188 -30.5q129 0 228.5 43.5t158.5 118.5t89 167.5t30 197.5 q0 81 -18 157.5t-57.5 146.5t-97 122t-142.5 84t-187 34q-243 0 -376.5 -150.5t-133.5 -393.5z" />
<glyph unicode="&#xd6;" horiz-adv-x="1650" d="M457 1720q0 48 26 80.5t63.5 40.5t75 0t63.5 -40.5t26 -80.5t-26 -81.5t-63.5 -41t-75 0t-63.5 41t-26 81.5zM948 1720q0 60 40 93.5t88 33.5t88 -33.5t40 -93.5q0 -48 -26.5 -81.5t-64 -41t-75 0t-64 41t-26.5 81.5zM829 1460q143 0 263.5 -41t205.5 -111.5t144.5 -166 t88 -204t28.5 -226.5t-28 -226t-87.5 -202.5t-144.5 -164t-207 -109.5t-267 -40t-267 41t-207 111t-144 164.5t-87 201.5t-28 222q0 216 93.5 387t262 267.5t381.5 96.5zM319 707q2 -79 20.5 -152.5t58 -142.5t97 -120t142.5 -81.5t188 -30.5q129 0 228.5 43.5t158.5 118.5 t89 167.5t30 197.5q0 81 -18 157.5t-57.5 146.5t-97 122t-142.5 84t-187 34q-243 0 -376.5 -150.5t-133.5 -393.5z" />
<glyph unicode="&#xd7;" horiz-adv-x="937" d="M264 999l209 -217l213 215l123 -120l-217 -222l229 -229l-133 -127l-225 227l-213 -217l-127 127l215 213l-215 213z" />
<glyph unicode="&#xd8;" horiz-adv-x="1646" d="M1221 1569l221 -2l-1018 -1719h-223zM829 1460q143 0 263.5 -41t205.5 -111.5t144.5 -166t88 -204t28.5 -226.5t-28 -226t-87.5 -202.5t-144.5 -164t-207 -109.5t-267 -40t-267 41t-207 111t-144 164.5t-87 201.5t-28 222q0 216 93.5 387t262 267.5t381.5 96.5zM319 707 q2 -79 20.5 -152.5t58 -142.5t97 -120t142.5 -81.5t188 -30.5q129 0 228.5 43.5t158.5 118.5t89 167.5t30 197.5q0 81 -18 157.5t-57.5 146.5t-97 122t-142.5 84t-187 34q-243 0 -376.5 -150.5t-133.5 -393.5z" />
<glyph unicode="&#xd9;" horiz-adv-x="1538" d="M506 1864v8h254l151 -277v-10h-190zM1149 1432h227v-840q0 -154 -48.5 -275.5t-134 -197.5t-198 -114t-243.5 -34q-121 2 -227 43t-188 116.5t-129.5 194.5t-47.5 267v840h227v-840q0 -189 100.5 -297t264.5 -113q176 -8 286.5 100.5t110.5 309.5v840z" />
<glyph unicode="&#xda;" horiz-adv-x="1538" d="M1057 1874v-8l-215 -273h-191v11l152 270h254zM1149 1432h227v-840q0 -154 -48.5 -275.5t-134 -197.5t-198 -114t-243.5 -34q-121 2 -227 43t-188 116.5t-129.5 194.5t-47.5 267v840h227v-840q0 -189 100.5 -297t264.5 -113q176 -8 286.5 100.5t110.5 309.5v840z" />
<glyph unicode="&#xdb;" horiz-adv-x="1538" d="M702 1888h123l301 -278v-13h-219l-143 123l-143 -123h-220v13zM1149 1432h227v-840q0 -154 -48.5 -275.5t-134 -197.5t-198 -114t-243.5 -34q-121 2 -227 43t-188 116.5t-129.5 194.5t-47.5 267v840h227v-840q0 -189 100.5 -297t264.5 -113q176 -8 286.5 100.5 t110.5 309.5v840z" />
<glyph unicode="&#xdc;" horiz-adv-x="1538" d="M397 1710q0 60 39.5 93.5t87.5 33.5t87.5 -33.5t39.5 -93.5q0 -48 -26 -81.5t-63.5 -41t-75 0t-63.5 41t-26 81.5zM889 1710q0 60 40 93.5t88 33.5t88 -33.5t40 -93.5q0 -48 -26.5 -81.5t-64 -41t-75 0t-64 41t-26.5 81.5zM1149 1432h227v-840q0 -154 -48.5 -275.5 t-134 -197.5t-198 -114t-243.5 -34q-121 2 -227 43t-188 116.5t-129.5 194.5t-47.5 267v840h227v-840q0 -189 100.5 -297t264.5 -113q176 -8 286.5 100.5t110.5 309.5v840z" />
<glyph unicode="&#xdd;" horiz-adv-x="1404" d="M977 1868v-8l-215 -273h-191v10l152 271h254zM305 1434l395 -633l408 633h276v-11l-569 -835v-588h-229v588l-553 835v11h272z" />
<glyph unicode="&#xde;" horiz-adv-x="1413" d="M178 0l2 1432h226v-238h438q123 0 222.5 -41t160.5 -108t94.5 -153t33.5 -175t-33.5 -175t-94.5 -153t-160.5 -108t-222.5 -41h-436v-240h-230zM408 983v-539h436q69 0 124 23t89 61t52 86.5t18 99t-18.5 99t-52.5 86.5t-89 61t-123 23h-436z" />
<glyph unicode="&#xdf;" horiz-adv-x="1267" d="M494 8v195q212 -66 341.5 1.5t129.5 211.5q0 70 -30.5 125t-82 87.5t-112.5 49t-128 16.5h-116v201h108q45 0 87.5 8t83 25.5t65 52.5t24.5 82q2 44 -12.5 79t-38.5 57t-58 36t-67.5 19.5t-69.5 5.5q-106 0 -172.5 -46t-72.5 -129q-6 -59 -6 -120v-383q0 -87 1 -293.5 t1 -288.5h-226v1055q0 98 40.5 176t108 126t150.5 73.5t172 25.5q94 0 178 -24.5t150.5 -71t105.5 -123.5t39 -174q0 -94 -59 -167.5t-162 -96.5q85 -20 149.5 -60.5t101 -93t54 -108.5t17.5 -115q0 -112 -38.5 -200t-105 -141t-154.5 -80t-189.5 -25t-206.5 32z" />
<glyph unicode="&#xe0;" d="M381 1444v8h254l151 -276v-11h-190zM948 850l6 160h205v-1010h-201l-10 164q-46 -92 -146 -141.5t-202 -49.5q-149 0 -265 60.5t-184.5 182.5t-68.5 290q0 164 71 285t188 181t263 60q110 0 203.5 -48.5t140.5 -133.5zM621 840q-139 0 -233.5 -92t-94.5 -242 q0 -151 94.5 -243.5t233.5 -92.5q79 0 142.5 29t103 76t60.5 107t21 123t-21 123t-60.5 107t-103 76t-142.5 29z" />
<glyph unicode="&#xe1;" d="M907 1442v-8l-215 -273h-190v10l151 271h254zM948 850l6 160h205v-1010h-201l-10 164q-46 -92 -146 -141.5t-202 -49.5q-149 0 -265 60.5t-184.5 182.5t-68.5 290q0 164 71 285t188 181t263 60q110 0 203.5 -48.5t140.5 -133.5zM621 840q-139 0 -233.5 -92t-94.5 -242 q0 -151 94.5 -243.5t233.5 -92.5q79 0 142.5 29t103 76t60.5 107t21 123t-21 123t-60.5 107t-103 76t-142.5 29z" />
<glyph unicode="&#xe2;" d="M608 1460h123l301 -278v-13h-219l-143 123l-144 -123h-219v13zM948 850l6 160h205v-1010h-201l-10 164q-46 -92 -146 -141.5t-202 -49.5q-149 0 -265 60.5t-184.5 182.5t-68.5 290q0 164 71 285t188 181t263 60q110 0 203.5 -48.5t140.5 -133.5zM621 840 q-139 0 -233.5 -92t-94.5 -242q0 -151 94.5 -243.5t233.5 -92.5q79 0 142.5 29t103 76t60.5 107t21 123t-21 123t-60.5 107t-103 76t-142.5 29z" />
<glyph unicode="&#xe3;" d="M469 1223l-125 67q31 92 92.5 138.5t149.5 27.5q26 -8 72 -30t67 -29q99 -34 127 53l135 -51q-10 -59 -36.5 -100t-60.5 -57.5t-73 -22t-74 5.5q-26 8 -72 30t-67 29q-93 32 -135 -61zM948 850l6 160h205v-1010h-201l-10 164q-46 -92 -146 -141.5t-202 -49.5 q-149 0 -265 60.5t-184.5 182.5t-68.5 290q0 164 71 285t188 181t263 60q110 0 203.5 -48.5t140.5 -133.5zM621 840q-139 0 -233.5 -92t-94.5 -242q0 -151 94.5 -243.5t233.5 -92.5q79 0 142.5 29t103 76t60.5 107t21 123t-21 123t-60.5 107t-103 76t-142.5 29z" />
<glyph unicode="&#xe4;" d="M303 1325q0 48 26 80.5t63.5 40.5t75 0t63.5 -40.5t26 -80.5t-26 -81.5t-63.5 -41t-75 0t-63.5 41t-26 81.5zM795 1325q0 48 26.5 80.5t64 40.5t75 0t64 -40.5t26.5 -80.5t-26.5 -81.5t-64 -41t-75 0t-64 41t-26.5 81.5zM948 850l6 160h205v-1010h-201l-10 164 q-46 -92 -146 -141.5t-202 -49.5q-149 0 -265 60.5t-184.5 182.5t-68.5 290q0 164 71 285t188 181t263 60q110 0 203.5 -48.5t140.5 -133.5zM621 840q-139 0 -233.5 -92t-94.5 -242q0 -151 94.5 -243.5t233.5 -92.5q79 0 142.5 29t103 76t60.5 107t21 123t-21 123t-60.5 107 t-103 76t-142.5 29z" />
<glyph unicode="&#xe5;" d="M391 1343q0 107 73.5 165.5t180.5 58.5t184.5 -59t77.5 -165t-75 -166.5t-185 -60.5q-108 0 -182 61t-74 166zM645 1448q-55 0 -86.5 -32t-31.5 -70.5t31.5 -70.5t86.5 -32q58 0 90.5 32t32 70.5t-33 70.5t-89.5 32zM948 850l6 160h205v-1010h-201l-10 164 q-46 -92 -146 -141.5t-202 -49.5q-149 0 -265 60.5t-184.5 182.5t-68.5 290q0 164 71 285t188 181t263 60q110 0 203.5 -48.5t140.5 -133.5zM621 840q-139 0 -233.5 -92t-94.5 -242q0 -151 94.5 -243.5t233.5 -92.5q79 0 142.5 29t103 76t60.5 107t21 123t-21 123t-60.5 107 t-103 76t-142.5 29z" />
<glyph unicode="&#xe6;" horiz-adv-x="2072" d="M1993 426h-822q20 -123 111.5 -190.5t216.5 -67.5q91 0 173 27.5t134 80.5l127 -129q-161 -172 -434 -172q-243 0 -354 170l-6 -145h-187l-2 160q-31 -61 -94 -105t-129 -63t-127 -19q-230 0 -374 139.5t-144 393.5q0 164 70.5 285t188 181t265.5 60q108 0 202.5 -48.5 t143.5 -133.5l6 160h189v-148q125 174 364 174q121 0 221 -41.5t167.5 -120t94 -191.5t-0.5 -257zM623 840q-140 0 -234 -92t-94 -242q0 -152 94 -244t234 -92q81 0 147 29t106 76t62 107t22 123t-22 123t-62 107t-106 76t-147 29zM1176 604h622q0 118 -79.5 181t-211.5 63 q-121 0 -214 -64t-117 -180z" />
<glyph unicode="&#xe7;" horiz-adv-x="1048" d="M479 -8h156l-29 -101q52 0 92.5 -14t64 -36.5t38 -51.5t15 -60t-4.5 -61q-14 -67 -59 -112.5t-105 -60.5t-124.5 -9t-125 41t-98.5 92l94 82q29 -43 86.5 -65t110.5 -8t69 63q10 37 -20 65.5t-76 32t-94 -19.5l-47 36zM854 270l143 -141q-85 -83 -177.5 -120.5 t-205.5 -37.5q-110 0 -206 34.5t-169 99.5t-115 167t-42 230t41.5 230t114.5 167t169 99t207 34q212 0 365 -149l-133 -138q-100 86 -230 86q-139 0 -231 -90.5t-92 -238.5q0 -154 92 -240t229 -86q149 0 240 94z" />
<glyph unicode="&#xe8;" horiz-adv-x="1191" d="M360 1430v8h254l152 -277v-10h-191zM1120 422h-819q14 -117 102.5 -185.5t227.5 -68.5q83 0 165.5 28.5t127.5 79.5l137 -133q-75 -84 -192.5 -128t-241.5 -44q-249 0 -397 146t-148 389q0 231 147.5 378.5t382.5 147.5q255 0 395.5 -156.5t112.5 -453.5zM305 600h613 q-10 119 -89.5 181.5t-210.5 62.5q-121 0 -205 -63t-108 -181z" />
<glyph unicode="&#xe9;" horiz-adv-x="1191" d="M901 1440v-8l-215 -273h-190v10l151 271h254zM1120 422h-819q14 -117 102.5 -185.5t227.5 -68.5q83 0 165.5 28.5t127.5 79.5l137 -133q-75 -84 -192.5 -128t-241.5 -44q-249 0 -397 146t-148 389q0 231 147.5 378.5t382.5 147.5q255 0 395.5 -156.5t112.5 -453.5z M305 600h613q-10 119 -89.5 181.5t-210.5 62.5q-121 0 -205 -63t-108 -181z" />
<glyph unicode="&#xea;" horiz-adv-x="1191" d="M565 1444h123l301 -279v-12h-219l-143 123l-144 -123h-219v12zM1120 422h-819q14 -117 102.5 -185.5t227.5 -68.5q83 0 165.5 28.5t127.5 79.5l137 -133q-75 -84 -192.5 -128t-241.5 -44q-249 0 -397 146t-148 389q0 231 147.5 378.5t382.5 147.5q255 0 395.5 -156.5 t112.5 -453.5zM305 600h613q-10 119 -89.5 181.5t-210.5 62.5q-121 0 -205 -63t-108 -181z" />
<glyph unicode="&#xeb;" horiz-adv-x="1191" d="M270 1319q0 48 26 80.5t63.5 40.5t75 0t63.5 -40.5t26 -80.5t-26 -81.5t-63.5 -41t-75 0t-63.5 41t-26 81.5zM721 1319q0 48 26.5 80.5t64 40.5t75 0t64 -40.5t26.5 -80.5t-26.5 -81.5t-64 -41t-75 0t-64 41t-26.5 81.5zM1120 422h-819q14 -117 102.5 -185.5t227.5 -68.5 q83 0 165.5 28.5t127.5 79.5l137 -133q-75 -84 -192.5 -128t-241.5 -44q-249 0 -397 146t-148 389q0 231 147.5 378.5t382.5 147.5q255 0 395.5 -156.5t112.5 -453.5zM305 600h613q-10 119 -89.5 181.5t-210.5 62.5q-121 0 -205 -63t-108 -181z" />
<glyph unicode="&#xec;" horiz-adv-x="507" d="M-14 1427v9h223l135 -275v-10h-188zM365 0h-222v985h222v-985z" />
<glyph unicode="&#xed;" horiz-adv-x="507" d="M489 1434v-9l-167 -274h-191v10l135 273h223zM365 0h-222v985h222v-985z" />
<glyph unicode="&#xee;" horiz-adv-x="507" d="M195 1456h108l262 -282v-13h-192l-125 119l-125 -119h-191v13zM365 0h-222v985h222v-985z" />
<glyph unicode="&#xef;" horiz-adv-x="507" d="M-51 1325q0 48 26 80.5t63.5 40.5t75 0t63.5 -40.5t26 -80.5t-26 -81.5t-63.5 -41t-75 0t-63.5 41t-26 81.5zM324 1325q0 48 26.5 80.5t64 40.5t75 0t64 -40.5t26.5 -80.5t-26.5 -81.5t-64 -41t-75 0t-64 41t-26.5 81.5zM365 0h-222v985h222v-985z" />
<glyph unicode="&#xf0;" horiz-adv-x="1210" d="M825 1389l-276 -334l-107 69l275 342zM602 172q145 0 224 93.5t79 223.5q0 61 -19 116.5t-55 100.5t-95.5 72t-133.5 27q-142 0 -222.5 -94t-80.5 -222q0 -83 33 -153.5t103.5 -117t166.5 -46.5zM516 983q91 11 180.5 -10t149.5 -78q-31 88 -124 168.5t-198 130 t-200 66.5l41 174q347 -62 552 -309.5t205 -610.5q0 -238 -139 -386t-381 -148q-126 0 -227.5 43t-164 115t-95.5 161.5t-33 187.5q0 89 27.5 170.5t80 149.5t136.5 115t190 61z" />
<glyph unicode="&#xf1;" horiz-adv-x="1249" d="M451 1221l-113 67q26 90 82 135.5t137 26.5q27 -6 70.5 -28.5t58.5 -28.5q23 -9 44 -10t42 14t29 49l125 -51q-19 -112 -84.5 -152t-139.5 -20q-26 8 -68.5 30.5t-58.5 28.5q-84 31 -124 -61zM1122 0h-213v541q0 133 -72 214t-200 81q-125 0 -204 -90t-79 -218v-528h-211 v1012h193l12 -148q144 166 340 166q190 0 312 -129t122 -358v-543z" />
<glyph unicode="&#xf2;" horiz-adv-x="1204" d="M319 1440v8h254l152 -266v-11h-190zM600 1030q230 0 377 -151t147 -375q0 -229 -144 -378t-380 -149q-234 0 -377 149t-143 378q0 147 64 266.5t183.5 189.5t272.5 70zM600 836q-138 0 -223.5 -97t-85.5 -235q0 -139 85 -234.5t224 -95.5q142 0 226.5 95t84.5 235 q0 137 -87.5 234.5t-223.5 97.5z" />
<glyph unicode="&#xf3;" horiz-adv-x="1204" d="M889 1446v-8l-213 -271h-189v11l150 268h252zM600 1030q230 0 377 -151t147 -375q0 -229 -144 -378t-380 -149q-234 0 -377 149t-143 378q0 147 64 266.5t183.5 189.5t272.5 70zM600 836q-138 0 -223.5 -97t-85.5 -235q0 -139 85 -234.5t224 -95.5q142 0 226.5 95 t84.5 235q0 137 -87.5 234.5t-223.5 97.5z" />
<glyph unicode="&#xf4;" horiz-adv-x="1204" d="M543 1477h123l301 -279v-12h-219l-144 123l-143 -123h-219v12zM600 1030q230 0 377 -151t147 -375q0 -229 -144 -378t-380 -149q-234 0 -377 149t-143 378q0 147 64 266.5t183.5 189.5t272.5 70zM600 836q-138 0 -223.5 -97t-85.5 -235q0 -139 85 -234.5t224 -95.5 q142 0 226.5 95t84.5 235q0 137 -87.5 234.5t-223.5 97.5z" />
<glyph unicode="&#xf5;" horiz-adv-x="1204" d="M416 1229l-117 65q28 90 85.5 135.5t139.5 26.5q26 -8 68.5 -29t60.5 -28q90 -34 119 51l125 -49q-10 -57 -34 -96.5t-55 -56.5t-67.5 -22.5t-70.5 5.5q-21 7 -64 28.5t-65 28.5q-86 32 -125 -59zM600 1030q230 0 377 -151t147 -375q0 -229 -144 -378t-380 -149 q-234 0 -377 149t-143 378q0 147 64 266.5t183.5 189.5t272.5 70zM600 836q-138 0 -223.5 -97t-85.5 -235q0 -139 85 -234.5t224 -95.5q142 0 226.5 95t84.5 235q0 137 -87.5 234.5t-223.5 97.5z" />
<glyph unicode="&#xf6;" horiz-adv-x="1204" d="M272 1325q0 48 26 80.5t63.5 40.5t75 0t63.5 -40.5t26 -80.5t-26 -81.5t-63.5 -41t-75 0t-63.5 41t-26 81.5zM707 1325q0 48 26.5 80.5t64 40.5t75 0t64 -40.5t26.5 -80.5t-26.5 -81.5t-64 -41t-75 0t-64 41t-26.5 81.5zM600 1030q230 0 377 -151t147 -375 q0 -229 -144 -378t-380 -149q-234 0 -377 149t-143 378q0 147 64 266.5t183.5 189.5t272.5 70zM600 836q-138 0 -223.5 -97t-85.5 -235q0 -139 85 -234.5t224 -95.5q142 0 226.5 95t84.5 235q0 137 -87.5 234.5t-223.5 97.5z" />
<glyph unicode="&#xf7;" horiz-adv-x="1130" d="M119 582v192h893v-192h-893zM440 301q0 48 26.5 81.5t64 41t75 0t64 -41t26.5 -81.5t-26.5 -81.5t-64 -41t-75 0t-64 41t-26.5 81.5zM440 1030q0 60 40 93.5t88 33.5t88 -33.5t40 -93.5q0 -48 -26.5 -81.5t-64 -41t-75 0t-64 41t-26.5 81.5z" />
<glyph unicode="&#xf8;" horiz-adv-x="1204" d="M870 1124h203l-741 -1251h-203zM600 1030q230 0 377 -151t147 -375q0 -229 -144 -378t-380 -149q-234 0 -377 149t-143 378q0 147 64 266.5t183.5 189.5t272.5 70zM600 836q-138 0 -223.5 -97t-85.5 -235q0 -139 85 -234.5t224 -95.5q142 0 226.5 95t84.5 235 q0 137 -87.5 234.5t-223.5 97.5z" />
<glyph unicode="&#xf9;" horiz-adv-x="1247" d="M356 1430v8h254l152 -277v-10h-191zM127 1006h211v-545q0 -132 71.5 -211.5t202.5 -79.5q123 0 202 88t79 217v531h211v-1008h-191l-12 141q-73 -86 -157 -125t-191 -39q-190 0 -308 129.5t-118 354.5v547z" />
<glyph unicode="&#xfa;" horiz-adv-x="1247" d="M903 1432v-9l-215 -272h-190v10l151 271h254zM127 1006h211v-545q0 -132 71.5 -211.5t202.5 -79.5q123 0 202 88t79 217v531h211v-1008h-191l-12 141q-73 -86 -157 -125t-191 -39q-190 0 -308 129.5t-118 354.5v547z" />
<glyph unicode="&#xfb;" horiz-adv-x="1247" d="M580 1454h118l291 -268v-10h-211l-139 116l-137 -116h-213v10zM127 1006h211v-545q0 -132 71.5 -211.5t202.5 -79.5q123 0 202 88t79 217v531h211v-1008h-191l-12 141q-73 -86 -157 -125t-191 -39q-190 0 -308 129.5t-118 354.5v547z" />
<glyph unicode="&#xfc;" horiz-adv-x="1247" d="M264 1319q0 48 26 80.5t63.5 40.5t75 0t63.5 -40.5t26 -80.5t-26 -81.5t-63.5 -41t-75 0t-63.5 41t-26 81.5zM756 1319q0 48 26.5 80.5t64 40.5t75 0t64 -40.5t26.5 -80.5t-26.5 -81.5t-64 -41t-75 0t-64 41t-26.5 81.5zM127 1006h211v-545q0 -132 71.5 -211.5 t202.5 -79.5q123 0 202 88t79 217v531h211v-1008h-191l-12 141q-73 -86 -157 -125t-191 -39q-190 0 -308 129.5t-118 354.5v547z" />
<glyph unicode="&#xfd;" horiz-adv-x="1142" d="M842 1434v-9l-203 -258h-178v11l141 256h240zM874 1010h236l-637 -1479h-233l209 483l-404 996h246l174 -478l100 -286l109 282z" />
<glyph unicode="&#xfe;" horiz-adv-x="1304" d="M692 182q137 0 227.5 86.5t90.5 235.5q0 151 -90 236t-228 85q-133 0 -225 -93t-92 -228t92.5 -228.5t224.5 -93.5zM356 -422h-213v1856h211l2 -586q52 85 151 133.5t206 48.5q109 0 201.5 -35t161.5 -100t108 -165.5t39 -225.5q0 -168 -67.5 -289t-181.5 -179.5 t-263 -58.5q-103 0 -200 45.5t-155 139.5v-584z" />
<glyph unicode="&#xff;" horiz-adv-x="1142" d="M195 1327q0 48 26 80.5t62.5 40.5t73.5 0t63 -40.5t26 -80.5t-26 -81.5t-63 -41t-73.5 0t-62.5 41t-26 81.5zM682 1327q0 48 26 80.5t63.5 40.5t75 0t63.5 -40.5t26 -80.5t-26 -81.5t-63.5 -41t-75 0t-63.5 41t-26 81.5zM874 1010h236l-637 -1479h-233l209 483l-404 996 h246l174 -478l100 -286l109 282z" />
<glyph unicode="&#x152;" horiz-adv-x="2064" d="M1954 207v-207h-920q-92 -27 -211 -27q-179 0 -320.5 59t-229.5 162t-133.5 237.5t-45.5 291.5q0 158 46 290.5t135 232.5t229.5 156t318.5 56q71 0 213 -24h910v-205h-701v-402h668v-204h-668v-416h709zM825 1266q-123 0 -220 -43t-157.5 -118t-92 -173t-31.5 -213 q0 -100 29.5 -193.5t84.5 -170.5t144.5 -126t199.5 -55q138 -12 252 27v1028q-87 37 -209 37z" />
<glyph unicode="&#x153;" horiz-adv-x="1988" d="M1917 426h-811q12 -118 97 -186t224 -68q81 0 163.5 28.5t129.5 80.5l138 -134q-75 -83 -192.5 -127.5t-240.5 -44.5q-146 0 -255.5 60.5t-170.5 171.5q-136 -227 -399 -227q-234 0 -377 148t-143 376q0 226 144.5 377t375.5 151q134 0 242 -60t168 -169 q48 102 156.5 166.5t244.5 64.5q123 0 221.5 -37.5t167.5 -111.5t100 -191t17 -268zM600 836q-138 0 -223.5 -97t-85.5 -235q0 -139 85 -233.5t224 -94.5q143 0 226 94t83 234q0 137 -87 234.5t-222 97.5zM1104 604h610q-10 119 -88.5 181.5t-208.5 62.5q-121 0 -205 -63 t-108 -181z" />
<glyph unicode="&#x178;" horiz-adv-x="1404" d="M340 1702q0 57 38 89t84 32t84 -32t38 -89t-38 -89t-84 -32t-84 32t-38 89zM809 1702q0 57 38 89t84 32t84 -32t38 -89t-38 -89t-84 -32t-84 32t-38 89zM305 1434l395 -633l408 633h276v-11l-569 -835v-588h-229v588l-553 835v11h272z" />
<glyph unicode="&#x2c6;" horiz-adv-x="862" d="M352 1456h123l301 -278v-13h-219l-143 123l-144 -123h-219v13z" />
<glyph unicode="&#x2dc;" horiz-adv-x="743" d="M182 1243l-125 68q31 92 92.5 138.5t149.5 27.5q26 -8 72 -30.5t67 -29.5q99 -34 127 53l135 -51q-10 -59 -36.5 -99.5t-60 -57.5t-72.5 -22.5t-74 5.5q-26 8 -72.5 30.5t-67.5 29.5q-92 31 -135 -62z" />
<glyph unicode="&#x2000;" horiz-adv-x="944" />
<glyph unicode="&#x2001;" horiz-adv-x="1888" />
<glyph unicode="&#x2002;" horiz-adv-x="944" />
<glyph unicode="&#x2003;" horiz-adv-x="1888" />
<glyph unicode="&#x2004;" horiz-adv-x="629" />
<glyph unicode="&#x2005;" horiz-adv-x="472" />
<glyph unicode="&#x2006;" horiz-adv-x="314" />
<glyph unicode="&#x2007;" horiz-adv-x="314" />
<glyph unicode="&#x2008;" horiz-adv-x="236" />
<glyph unicode="&#x2009;" horiz-adv-x="377" />
<glyph unicode="&#x200a;" horiz-adv-x="104" />
<glyph unicode="&#x2010;" horiz-adv-x="1011" d="M133 498v190h746v-190h-746z" />
<glyph unicode="&#x2011;" horiz-adv-x="1011" d="M133 498v190h746v-190h-746z" />
<glyph unicode="&#x2012;" horiz-adv-x="1011" d="M133 498v190h746v-190h-746z" />
<glyph unicode="&#x2013;" horiz-adv-x="1220" d="M133 494v186h954v-186h-954z" />
<glyph unicode="&#x2014;" horiz-adv-x="1423" d="M133 494v188h1157v-188h-1157z" />
<glyph unicode="&#x2018;" horiz-adv-x="503" d="M416 1436l-97 -430h-223l150 430h170z" />
<glyph unicode="&#x2019;" horiz-adv-x="495" d="M106 1001l99 433h221l-150 -433h-170z" />
<glyph unicode="&#x201a;" horiz-adv-x="526" d="M68 -250l96 432h223l-149 -432h-170z" />
<glyph unicode="&#x201c;" horiz-adv-x="837" d="M748 1432l-99 -433h-207l136 433h170zM424 1432l-107 -433h-215l152 433h170z" />
<glyph unicode="&#x201d;" horiz-adv-x="811" d="M106 1006l99 428h207l-136 -428h-170zM432 1006l96 428h209l-135 -428h-170z" />
<glyph unicode="&#x201e;" horiz-adv-x="860" d="M68 -250l96 432h223l-149 -432h-170zM401 -250l97 432h223l-150 -432h-170z" />
<glyph unicode="&#x2022;" horiz-adv-x="804" d="M403 395q-104 0 -170.5 63.5t-66.5 166.5t66.5 168t170.5 65q101 0 167.5 -65t66.5 -168t-66.5 -166.5t-167.5 -63.5z" />
<glyph unicode="&#x2026;" horiz-adv-x="1374" d="M119 113q0 61 40.5 95.5t89.5 34.5t89.5 -34.5t40.5 -95.5q0 -50 -27 -83.5t-65 -41.5t-76 0t-65 41.5t-27 83.5zM557 113q0 49 27 82.5t65.5 41.5t77 0t65.5 -41.5t27 -82.5q0 -50 -27 -83.5t-65.5 -41.5t-77 0t-65.5 41.5t-27 83.5zM995 113q0 61 40.5 95.5t89.5 34.5 t89.5 -34.5t40.5 -95.5q0 -50 -27 -83.5t-65 -41.5t-76 0t-65 41.5t-27 83.5z" />
<glyph unicode="&#x202f;" horiz-adv-x="377" />
<glyph unicode="&#x2039;" horiz-adv-x="675" d="M78 608l284 451h228v-2l-283 -449q57 -93 283 -454h-228z" />
<glyph unicode="&#x203a;" horiz-adv-x="677" d="M313 1061l285 -451l-285 -454h-225l281 454l-281 449v2h225z" />
<glyph unicode="&#x205f;" horiz-adv-x="472" />
<glyph unicode="&#x20ac;" horiz-adv-x="1255" d="M1118 221l64 -213q-118 -37 -250 -37q-153 0 -276 37.5t-208 107t-140 161.5t-83 208h-137v172h113v50q0 38 2 61h-115v174h141q27 112 83.5 204.5t142.5 163t208 109.5t269 39q108 0 217 -31l-70 -204q-63 18 -147 18q-182 0 -299 -79t-170 -220h489l-39 -174h-499 q-2 -18 -2 -59q0 -38 2 -52h467l-35 -172h-387q49 -141 167 -220t306 -79q90 0 186 35z" />
<glyph unicode="&#x2122;" horiz-adv-x="1660" d="M809 1434h154l192 -246l197 246h151v-594h-162l7 354q-27 -36 -88 -109.5t-89 -109.5h-34l-174 227l6 -362h-160v594zM332 1296h-205v138h563v-138h-201v-454h-157v454z" />
<glyph unicode="&#x25fc;" horiz-adv-x="1013" d="M0 1014h1014v-1014h-1014v1014z" />
<glyph unicode="&#xfb01;" horiz-adv-x="1255" d="M809 1401l-68 -166q-62 35 -120 35q-76 0 -120 -49.5t-44 -149.5v-74h301v-184h-301v-813h-213v813h-187v184h187v74q0 183 101.5 283t262.5 100q98 0 201 -53zM903 1014h213v-1014h-213v1014zM879 1307q0 62 38.5 95.5t92.5 33.5t92.5 -33.5t38.5 -95.5t-38.5 -96.5 t-92.5 -34.5t-92.5 34.5t-38.5 96.5z" />
<glyph unicode="&#xfb02;" horiz-adv-x="1265" d="M745 1430l-30 -183q-54 23 -97 23q-75 0 -119 -50t-44 -149v-74h264v-184h-264v-813h-213v813h-185v184h185v74q0 183 101.5 283t262.5 100q72 0 139 -24zM901 1436h213v-1436h-213v1436z" />
</font>
</defs>
</svg>
